<svg width="330" height="450" viewBox="0 0 330 450" xmlns="http://www.w3.org/2000/svg" xmlns:xlink="http://www.w3.org/1999/xlink">
    <defs>
        <filter x="-2%" y="-1.4%" width="104%" height="102.9%" filterUnits="objectBoundingBox" id="h8ax11wfia">
            <feGaussianBlur stdDeviation="2" in="SourceGraphic"/>
        </filter>
        <filter x="-.7%" y="-.5%" width="101.3%" height="101%" filterUnits="objectBoundingBox" id="6nteavru2c">
            <feGaussianBlur stdDeviation="1.5" in="SourceAlpha" result="shadowBlurInner1"/>
            <feOffset dy="1" in="shadowBlurInner1" result="shadowOffsetInner1"/>
            <feComposite in="shadowOffsetInner1" in2="SourceAlpha" operator="arithmetic" k2="-1" k3="1" result="shadowInnerInner1"/>
            <feColorMatrix values="0 0 0 0 1 0 0 0 0 1 0 0 0 0 1 0 0 0 1 0" in="shadowInnerInner1"/>
        </filter>
        <filter x="-1%" y="-.7%" width="102%" height="101.4%" filterUnits="objectBoundingBox" id="wqt3glz5qg">
            <feGaussianBlur stdDeviation="1" in="SourceGraphic"/>
        </filter>
        <filter x="-.7%" y="-.5%" width="101.3%" height="101%" filterUnits="objectBoundingBox" id="s84nuhw8yh">
            <feGaussianBlur stdDeviation="1.5" in="SourceAlpha" result="shadowBlurInner1"/>
            <feOffset dy="1" in="shadowBlurInner1" result="shadowOffsetInner1"/>
            <feComposite in="shadowOffsetInner1" in2="SourceAlpha" operator="arithmetic" k2="-1" k3="1" result="shadowInnerInner1"/>
            <feColorMatrix values="0 0 0 0 1 0 0 0 0 1 0 0 0 0 1 0 0 0 1 0" in="shadowInnerInner1"/>
        </filter>
        <filter x="-2%" y="-1.4%" width="104%" height="102.9%" filterUnits="objectBoundingBox" id="scnpye9s3j">
            <feGaussianBlur stdDeviation="2" in="SourceGraphic"/>
        </filter>
        <filter x="-.7%" y="-.5%" width="101.3%" height="101%" filterUnits="objectBoundingBox" id="m8fk3rb64k">
            <feGaussianBlur stdDeviation="1.5" in="SourceAlpha" result="shadowBlurInner1"/>
            <feOffset dy="1" in="shadowBlurInner1" result="shadowOffsetInner1"/>
            <feComposite in="shadowOffsetInner1" in2="SourceAlpha" operator="arithmetic" k2="-1" k3="1" result="shadowInnerInner1"/>
            <feColorMatrix values="0 0 0 0 1 0 0 0 0 1 0 0 0 0 1 0 0 0 1 0" in="shadowInnerInner1"/>
        </filter>
        <filter x="-27.8%" y="-27.8%" width="155.6%" height="155.6%" filterUnits="objectBoundingBox" id="nbabkaa2um">
            <feGaussianBlur stdDeviation="10" in="SourceGraphic"/>
        </filter>
        <filter x="-27.8%" y="-27.8%" width="155.6%" height="155.6%" filterUnits="objectBoundingBox" id="kkcbjbeswn">
            <feGaussianBlur stdDeviation="10" in="SourceGraphic"/>
        </filter>
        <filter x="-27.6%" y="-14.1%" width="155.1%" height="128.1%" filterUnits="objectBoundingBox" id="iw5aq939yo">
            <feGaussianBlur stdDeviation="9" in="SourceGraphic"/>
        </filter>
        <filter x="-8.2%" y="-2.1%" width="116.3%" height="108.3%" filterUnits="objectBoundingBox" id="s1omncynap">
            <feOffset dy="4" in="SourceAlpha" result="shadowOffsetOuter1"/>
            <feGaussianBlur stdDeviation="2" in="shadowOffsetOuter1" result="shadowBlurOuter1"/>
            <feColorMatrix values="0 0 0 0 1 0 0 0 0 0.164445979 0 0 0 0 0.493578898 0 0 0 1 0" in="shadowBlurOuter1"/>
        </filter>
        <filter x="-27.6%" y="-14.1%" width="155.1%" height="128.1%" filterUnits="objectBoundingBox" id="52e4640t9r">
            <feGaussianBlur stdDeviation="9" in="SourceGraphic"/>
        </filter>
        <linearGradient x1="50%" y1=".654%" x2="50%" y2="100%" id="ko2m1j5fhb">
            <stop stop-color="#7A13A0" offset="0%"/>
            <stop stop-color="#2B0130" offset="100%"/>
        </linearGradient>
        <linearGradient x1="50%" y1="0%" x2="50%" y2="100%" id="o75cdfz6ee">
            <stop stop-color="#F0EDED" offset="0%"/>
            <stop stop-color="#FF1FAA" offset="100%"/>
        </linearGradient>
        <linearGradient x1="50%" y1="0%" x2="50%" y2="100%" id="kypwgfl64f">
            <stop stop-color="#FF6FC8" stop-opacity=".852" offset="0%"/>
            <stop stop-color="#FF1FAA" offset="100%"/>
        </linearGradient>
        <rect id="guizjbancd" x="15" y="15" width="300" height="420" rx="15"/>
        <rect id="55je7lfp3i" x="0" y="0" width="300" height="420" rx="15"/>
        <rect id="zt7dedm6ol" x="0" y="0" width="300" height="420" rx="15"/>
        <text id="67a021o1lq" font-family="Gotham-Medium, Gotham" font-size="160" font-weight="400" fill="#FB00FF" fill-opacity=".877">
            <tspan x="0" y="154">7</tspan>
        </text>
    </defs>
    <g fill="none" fill-rule="evenodd">
        <g transform="matrix(-1 0 0 1 330 0)">
            <path d="M0 0h330v450H0z"/>
            <rect fill="#FF1FAA" opacity=".19" filter="url(#h8ax11wfia)" x="15" y="15" width="300" height="420" rx="15"/>
            <rect fill="url(#ko2m1j5fhb)" opacity=".8" x="15" y="15" width="300" height="420" rx="15"/>
            <g opacity=".962">
                <use fill="#000" filter="url(#6nteavru2c)" xlink:href="#guizjbancd"/>
                <rect stroke="url(#o75cdfz6ee)" stroke-linejoin="square" x="15.5" y="15.5" width="299" height="419" rx="15"/>
            </g>
            <rect stroke="url(#kypwgfl64f)" x="27.5" y="27.5" width="275" height="395" rx="12"/>
        </g>
        <g transform="matrix(-1 0 0 1 315 15)">
            <rect fill="#FF1FAA" opacity=".308" filter="url(#wqt3glz5qg)" width="300" height="420" rx="15"/>
            <rect fill="url(#ko2m1j5fhb)" opacity=".8" width="300" height="420" rx="15"/>
            <g opacity=".962">
                <use fill="#000" filter="url(#s84nuhw8yh)" xlink:href="#55je7lfp3i"/>
                <rect stroke="url(#o75cdfz6ee)" stroke-linejoin="square" x=".5" y=".5" width="299" height="419" rx="15"/>
            </g>
            <rect stroke="url(#kypwgfl64f)" x="12.5" y="12.5" width="275" height="395" rx="12"/>
        </g>
        <g transform="matrix(-1 0 0 1 315 15)">
            <rect fill="#FF1FAA" opacity=".606" filter="url(#scnpye9s3j)" width="300" height="420" rx="15"/>
            <rect fill="url(#ko2m1j5fhb)" opacity=".8" width="300" height="420" rx="15"/>
            <g opacity=".962">
                <use fill="#000" filter="url(#m8fk3rb64k)" xlink:href="#zt7dedm6ol"/>
                <rect stroke="url(#o75cdfz6ee)" stroke-linejoin="square" x=".5" y=".5" width="299" height="419" rx="15"/>
            </g>
            <rect stroke="url(#kypwgfl64f)" x="12.5" y="12.5" width="275" height="395" rx="12"/>
        </g>
        <g fill="#F92FFC">
            <path filter="url(#nbabkaa2um)" transform="scale(-1 1) rotate(45 -302.315 -98.223)" d="m22.368 22.368 101.416 6.583 6.584 101.417-101.417-6.584z"/>
            <path d="M158 217.39 91.608 293 158 368.61 224.392 293 158 217.39z" stroke="#FFF" fill-opacity=".5"/>
            <path filter="url(#kkcbjbeswn)" transform="scale(-1 1) rotate(45 -302.315 -98.223)" d="m22.368 22.368 101.416 6.583 6.584 101.417-101.417-6.584z"/>
            <path d="M158 217.39 91.608 293 158 368.61 224.392 293 158 217.39z" stroke="#FFF" fill-opacity=".5"/>
        </g>
        <text filter="url(#iw5aq939yo)" font-family="Gotham-Medium, Gotham" font-size="160" font-weight="400" fill="#ED1AF0" transform="matrix(-1 0 0 1 283 27)">
                        <tspan x="0" y="154">7</tspan>
                    </text>
        <g fill="#FB00FF" fill-opacity=".877" transform="matrix(-1 0 0 1 283 27)">
            <use filter="url(#s1omncynap)" xlink:href="#67a021o1lq"/>
            <use xlink:href="#67a021o1lq"/>
        </g>
        <text filter="url(#52e4640t9r)" font-family="Gotham-Medium, Gotham" font-size="160" font-weight="400" fill="#ED1AF0" transform="matrix(-1 0 0 1 283 27)">
                        <tspan x="0" y="154">7</tspan>
                    </text>
        <text stroke="#FFF" font-family="Gotham-Medium, Gotham" font-size="160" font-weight="400" fill="#FB00FF" fill-opacity=".51" transform="matrix(-1 0 0 1 283 27)">
                        <tspan x="0" y="154">7</tspan>
                    </text>
    </g>
</svg>
