<svg width="330" height="450" viewBox="0 0 330 450" xmlns="http://www.w3.org/2000/svg" xmlns:xlink="http://www.w3.org/1999/xlink">
    <defs>
        <filter x="-4%" y="-2.9%" width="108%" height="105.7%" filterUnits="objectBoundingBox" id="a5qxqssvra">
            <feGaussianBlur stdDeviation="4" in="SourceGraphic"/>
        </filter>
        <filter x="-.7%" y="-.5%" width="101.3%" height="101%" filterUnits="objectBoundingBox" id="ps8ez58b0c">
            <feGaussianBlur stdDeviation="1.5" in="SourceAlpha" result="shadowBlurInner1"/>
            <feOffset dy="1" in="shadowBlurInner1" result="shadowOffsetInner1"/>
            <feComposite in="shadowOffsetInner1" in2="SourceAlpha" operator="arithmetic" k2="-1" k3="1" result="shadowInnerInner1"/>
            <feColorMatrix values="0 0 0 0 1 0 0 0 0 1 0 0 0 0 1 0 0 0 1 0" in="shadowInnerInner1"/>
        </filter>
        <filter x="-2%" y="-1.4%" width="104%" height="102.9%" filterUnits="objectBoundingBox" id="1wrnq3qrpg">
            <feGaussianBlur stdDeviation="2" in="SourceGraphic"/>
        </filter>
        <filter x="-.7%" y="-.5%" width="101.3%" height="101%" filterUnits="objectBoundingBox" id="6kwbpn4jzi">
            <feGaussianBlur stdDeviation="1.5" in="SourceAlpha" result="shadowBlurInner1"/>
            <feOffset dy="1" in="shadowBlurInner1" result="shadowOffsetInner1"/>
            <feComposite in="shadowOffsetInner1" in2="SourceAlpha" operator="arithmetic" k2="-1" k3="1" result="shadowInnerInner1"/>
            <feColorMatrix values="0 0 0 0 1 0 0 0 0 1 0 0 0 0 1 0 0 0 1 0" in="shadowInnerInner1"/>
        </filter>
        <filter x="-58.1%" y="-61%" width="216.2%" height="221.9%" filterUnits="objectBoundingBox" id="1j79a0h6ck">
            <feGaussianBlur stdDeviation="10" in="SourceGraphic"/>
        </filter>
        <filter x="-35.6%" y="-26.6%" width="171.3%" height="173.6%" filterUnits="objectBoundingBox" id="npybbp6u5l">
            <feMorphology radius=".6" operator="dilate" in="SourceAlpha" result="shadowSpreadOuter1"/>
            <feOffset dy="5" in="shadowSpreadOuter1" result="shadowOffsetOuter1"/>
            <feGaussianBlur stdDeviation="5" in="shadowOffsetOuter1" result="shadowBlurOuter1"/>
            <feComposite in="shadowBlurOuter1" in2="SourceAlpha" operator="out" result="shadowBlurOuter1"/>
            <feColorMatrix values="0 0 0 0 0.263706373 0 0 0 0 0.0154848352 0 0 0 0 0.113261732 0 0 0 1 0" in="shadowBlurOuter1"/>
        </filter>
        <filter x="-29%" y="-30.5%" width="158.1%" height="161%" filterUnits="objectBoundingBox" id="as4bxpw0an">
            <feGaussianBlur stdDeviation="5" in="SourceGraphic"/>
        </filter>
        <filter x="-35.6%" y="-26.6%" width="171.3%" height="173.6%" filterUnits="objectBoundingBox" id="mqfd4ekb8o">
            <feMorphology radius=".6" operator="dilate" in="SourceAlpha" result="shadowSpreadOuter1"/>
            <feOffset dy="5" in="shadowSpreadOuter1" result="shadowOffsetOuter1"/>
            <feGaussianBlur stdDeviation="5" in="shadowOffsetOuter1" result="shadowBlurOuter1"/>
            <feComposite in="shadowBlurOuter1" in2="SourceAlpha" operator="out" result="shadowBlurOuter1"/>
            <feColorMatrix values="0 0 0 0 0.262745098 0 0 0 0 0.0156862745 0 0 0 0 0.11372549 0 0 0 1 0" in="shadowBlurOuter1"/>
        </filter>
        <filter x="-41.7%" y="-41.6%" width="183.3%" height="183.2%" filterUnits="objectBoundingBox" id="adochp4yxq">
            <feGaussianBlur stdDeviation="10" in="SourceGraphic"/>
        </filter>
        <filter x="-20.8%" y="-20.8%" width="141.7%" height="141.6%" filterUnits="objectBoundingBox" id="ja3huaoxpr">
            <feGaussianBlur stdDeviation="5" in="SourceGraphic"/>
        </filter>
        <linearGradient x1="50%" y1=".654%" x2="50%" y2="66.255%" id="8y7ibrw36b">
            <stop stop-color="#7A13A0" offset="0%"/>
            <stop stop-color="#270633" offset="39.774%"/>
            <stop offset="100%"/>
        </linearGradient>
        <linearGradient x1="50%" y1="0%" x2="50%" y2="100%" id="v5d8jvzk7e">
            <stop stop-color="#F0EDED" offset="0%"/>
            <stop stop-color="#FF1FAA" offset="100%"/>
        </linearGradient>
        <linearGradient x1="50%" y1="0%" x2="50%" y2="100%" id="u2pxxngbof">
            <stop stop-color="#FF6FC8" stop-opacity=".852" offset="0%"/>
            <stop stop-color="#FF1FAA" offset="100%"/>
        </linearGradient>
        <linearGradient x1="50%" y1=".654%" x2="50%" y2="77.53%" id="1mo9j46csh">
            <stop stop-color="#7A13A0" offset="0%"/>
            <stop stop-color="#420650" offset="40.766%"/>
            <stop stop-color="#2B0130" offset="100%"/>
        </linearGradient>
        <rect id="hih9zbvu4d" x="15" y="15" width="300" height="420" rx="15"/>
        <rect id="trcley7v5j" x="0" y="0" width="300" height="420" rx="15"/>
        <path d="m29.953 0 21.692 49.212h-10.02l-5.098-11.977H14.695L9.95 49.212H0L20.25 0h9.703zM17.578 30.013h15.856l-8.297-19.48-7.559 19.48z" id="wrfnve8zjm"/>
        <path d="m29.953 0 21.692 49.212h-10.02l-5.098-11.977H14.695L9.95 49.212H0L20.25 0h9.703zM17.578 30.013h15.856l-8.297-19.48-7.559 19.48z" id="jppm2xfqwp"/>
    </defs>
    <g fill="none" fill-rule="evenodd">
        <g transform="matrix(-1 0 0 1 330 0)">
            <path d="M0 0h330v450H0z"/>
            <rect fill="#FF1FAA" opacity=".19" filter="url(#a5qxqssvra)" x="15" y="15" width="300" height="420" rx="15"/>
            <rect fill="url(#8y7ibrw36b)" x="15" y="15" width="300" height="420" rx="15"/>
            <g opacity=".962">
                <use fill="#000" filter="url(#ps8ez58b0c)" xlink:href="#hih9zbvu4d"/>
                <rect stroke="url(#v5d8jvzk7e)" stroke-linejoin="square" x="15.5" y="15.5" width="299" height="419" rx="15"/>
            </g>
            <rect stroke="url(#u2pxxngbof)" x="27.5" y="27.5" width="275" height="395" rx="12"/>
        </g>
        <g transform="matrix(-1 0 0 1 315 15)">
            <rect fill="#FF1FAA" opacity=".308" filter="url(#1wrnq3qrpg)" width="300" height="420" rx="15"/>
            <rect fill="url(#1mo9j46csh)" opacity=".8" width="300" height="420" rx="15"/>
            <g opacity=".962">
                <use fill="#000" filter="url(#6kwbpn4jzi)" xlink:href="#trcley7v5j"/>
                <rect stroke="url(#v5d8jvzk7e)" stroke-linejoin="square" x=".5" y=".5" width="299" height="419" rx="15"/>
            </g>
            <rect stroke="url(#u2pxxngbof)" x="12.5" y="12.5" width="275" height="395" rx="12"/>
        </g>
        <path d="m29.953 0 21.692 49.212h-10.02l-5.098-11.977H14.695L9.95 49.212H0L20.25 0h9.703zM17.578 30.013h15.856l-8.297-19.48-7.559 19.48z" filter="url(#1j79a0h6ck)" transform="matrix(-1 0 0 1 265.048 55)" fill="#ED1AF0" fill-rule="nonzero"/>
        <g transform="matrix(-1 0 0 1 265.048 55)" fill-rule="nonzero">
            <use fill="#000" filter="url(#npybbp6u5l)" xlink:href="#wrfnve8zjm"/>
            <use stroke-opacity=".8" stroke="#FFF" stroke-width="1.2" fill-opacity=".51" fill="#ED1AF0" xlink:href="#wrfnve8zjm"/>
        </g>
        <path d="m29.953 0 21.692 49.212h-10.02l-5.098-11.977H14.695L9.95 49.212H0L20.25 0h9.703zM17.578 30.013h15.856l-8.297-19.48-7.559 19.48z" filter="url(#as4bxpw0an)" transform="matrix(-1 0 0 1 265.048 55)" fill="#ED1AF0" fill-rule="nonzero"/>
        <g transform="matrix(-1 0 0 1 265.048 55)" fill-rule="nonzero">
            <use fill="#000" filter="url(#mqfd4ekb8o)" xlink:href="#jppm2xfqwp"/>
            <use stroke-opacity=".8" stroke="#E866C4" stroke-width="1.2" fill-opacity=".51" fill="#ED1AF0" xlink:href="#jppm2xfqwp"/>
        </g>
        <path d="M66.79 76.342c-7.82-9.347-20.542-4.782-25.08-.716-.003.007-.817.557-3.188 3.084-1.261 1.43-2.516 3.37-2.523 3.382-.003-.012-1.258-1.951-2.52-3.382-2.37-2.527-3.182-3.077-3.188-3.084-4.538-4.066-17.263-8.631-25.08.716-8.467 10.12-7.152 22.526 7.915 37.447 15.584 15.431 20.797 24.495 22.533 28.522 0 0 .263.843.34.664.08.179.34-.664.34-.664 1.738-4.027 6.952-13.09 22.536-28.522 15.063-14.921 16.382-27.328 7.916-37.447" fill="#F92FFC" filter="url(#adochp4yxq)" transform="matrix(-1 0 0 1 275 55)"/>
        <path d="M208.21 131.342c7.82-9.347 20.542-4.782 25.08-.716.003.007.817.557 3.188 3.084 1.261 1.43 2.516 3.37 2.523 3.382.003-.012 1.258-1.951 2.52-3.382 2.37-2.527 3.182-3.077 3.188-3.084 4.538-4.066 17.263-8.631 25.08.716 8.467 10.12 7.152 22.526-7.915 37.447-15.584 15.431-20.797 24.495-22.533 28.522 0 0-.263.843-.34.664-.08.179-.34-.664-.34-.664-1.738-4.027-6.952-13.09-22.536-28.522-15.063-14.921-16.382-27.328-7.916-37.447" stroke="#FFF" stroke-width="1.2" fill-opacity=".5" fill="#F92FFC"/>
        <path d="M66.79 76.342c-7.82-9.347-20.542-4.782-25.08-.716-.003.007-.817.557-3.188 3.084-1.261 1.43-2.516 3.37-2.523 3.382-.003-.012-1.258-1.951-2.52-3.382-2.37-2.527-3.182-3.077-3.188-3.084-4.538-4.066-17.263-8.631-25.08.716-8.467 10.12-7.152 22.526 7.915 37.447 15.584 15.431 20.797 24.495 22.533 28.522 0 0 .263.843.34.664.08.179.34-.664.34-.664 1.738-4.027 6.952-13.09 22.536-28.522 15.063-14.921 16.382-27.328 7.916-37.447" fill="#F92FFC" filter="url(#ja3huaoxpr)" transform="matrix(-1 0 0 1 275 55)"/>
        <path d="M208.21 131.342c7.82-9.347 20.542-4.782 25.08-.716.003.007.817.557 3.188 3.084 1.261 1.43 2.516 3.37 2.523 3.382.003-.012 1.258-1.951 2.52-3.382 2.37-2.527 3.182-3.077 3.188-3.084 4.538-4.066 17.263-8.631 25.08.716 8.467 10.12 7.152 22.526-7.915 37.447-15.584 15.431-20.797 24.495-22.533 28.522 0 0-.263.843-.34.664-.08.179-.34-.664-.34-.664-1.738-4.027-6.952-13.09-22.536-28.522-15.063-14.921-16.382-27.328-7.916-37.447" stroke="#FFF" stroke-width="1.2" fill-opacity=".5" fill="#F92FFC"/>
    </g>
</svg>
