<svg width="100" height="100" viewBox="0 0 100 100" xmlns="http://www.w3.org/2000/svg">
    <g fill="none" fill-rule="evenodd">
        <path d="M0 0h100v100H0z"/>
        <g stroke="#FFF">
            <path d="M33.566 64.891a4.148 4.148 0 0 1-2.148-5.46l16.949-38.937a4.148 4.148 0 0 1 5.46-2.148l25.575 11.132a4.15 4.15 0 0 1 2.148 5.46l-9.767 22.436" stroke-width="2"/>
            <path d="M74.616 71.21c0 6.654-5.395 12.05-12.051 12.05-6.656 0-12.051-5.396-12.051-12.05 0-6.656 5.395-12.052 12.05-12.052 6.657 0 12.052 5.396 12.052 12.051z" stroke-width="2"/>
            <path d="M65.436 68.977v-2.419H60.92c-1.247 0-2.258 1.083-2.258 2.42 0 1.335 1.011 2.418 2.258 2.418h3.01c1.248 0 2.258 1.083 2.258 2.42 0 1.336-1.01 2.418-2.258 2.418h-4.516v-2.419M62.425 63.87v14.515" stroke-width="1.742"/>
            <path stroke-width="2" d="M49.17 78.473H36.628v4H51.17M36.627 78.473v-4H47.17M47.17 70.473H34.628v4h2.417M47.17 66.473H36.628v4H47.17"/>
            <path d="M60.245 27.41c-.472-1.429-2.187-1.578-2.915-1.364-.001.001-.123.02-.523.176-.217.093-.457.242-.46.243a3.757 3.757 0 0 0-.133-.5c-.158-.4-.227-.502-.227-.503-.34-.68-1.617-1.833-2.984-1.205-1.48.68-1.92 2.11-.862 4.522 1.094 2.495 1.274 3.76 1.285 4.29 0 0-.01.106.008.091 0 .024.072-.056.072-.056.397-.354 1.444-1.083 4.016-1.982 2.485-.87 3.234-2.167 2.723-3.713z" stroke-linejoin="round"/>
            <path d="M65.06 45.273c-.817-2.47-3.783-2.728-5.042-2.357-.002 0-.213.034-.904.305-.375.16-.791.418-.793.419 0-.002-.095-.482-.233-.866-.273-.691-.392-.867-.393-.87-.587-1.174-2.797-3.17-5.161-2.083-2.56 1.175-3.32 3.65-1.49 7.822 1.892 4.315 2.202 6.5 2.222 7.42 0 0-.016.184.014.157.002.04.124-.096.124-.096.687-.612 2.498-1.875 6.946-3.43 4.299-1.504 5.594-3.747 4.71-6.421z" stroke-width="2" stroke-linejoin="round"/>
            <path d="M28.968 74.776a4.148 4.148 0 0 1-4.221-4.075L24 28.241a4.15 4.15 0 0 1 4.076-4.22l16.026-.283" stroke-width="2"/>
            <path d="m33.45 39.934-4.433-5.358 4.432-5.357 4.432 5.357z"/>
        </g>
    </g>
</svg>
