<svg width="100" height="100" viewBox="0 0 100 100" xmlns="http://www.w3.org/2000/svg" xmlns:xlink="http://www.w3.org/1999/xlink">
    <defs>
        <path id="8svzoyzd6a" d="M0 45.534h52.838V0H0z"/>
    </defs>
    <g fill="none" fill-rule="evenodd">
        <path d="M0 0h100v100H0z"/>
        <g transform="translate(21 27)">
            <path d="M29.838 33.326c0 6.19-5.018 11.208-11.208 11.208-6.191 0-11.209-5.018-11.209-11.208s5.018-11.208 11.209-11.208c6.19 0 11.208 5.018 11.208 11.208z" stroke="#FFF" stroke-width="2"/>
            <path d="M21.3 31.25V29h-4.2c-1.16 0-2.1 1.007-2.1 2.25s.94 2.25 2.1 2.25h2.8c1.16 0 2.1 1.007 2.1 2.25S21.06 38 19.9 38h-4.2v-2.25M18.5 26.5V40" stroke="#FFF" stroke-width="1.742"/>
            <path stroke="#FFF" stroke-width="2" d="M26.838 40.534h23v4h-25M49.838 40.534v-4h-21M28.838 32.534h23v4h-2.417M28.838 28.534h21v4h-21M26.838 24.534h23v4h-21M26.838 24.534v-4M49.838 20.534v4"/>
            <mask id="8iu6cnbzcb" fill="#fff">
                <use xlink:href="#8svzoyzd6a"/>
            </mask>
            <path stroke="#FFF" stroke-width="2" mask="url(#8iu6cnbzcb)" d="M26.838 20.534h25v-4h-25zM24.838 16.534h22v-4h-22z"/>
            <path stroke="#FFF" stroke-width="2" mask="url(#8iu6cnbzcb)" d="M24.838 12.534h25v-4h-25zM22.838 8.534h25v-4h-25zM4.838 44.534h48"/>
            <path d="M5.49 26.117c1.51-4 6.017-7.862 10-8V13h4.49L10.49 1 1 13h4.49v13.117z" stroke="#FFF" stroke-width="2" stroke-linejoin="round" mask="url(#8iu6cnbzcb)"/>
        </g>
    </g>
</svg>
