<svg width="100" height="100" viewBox="0 0 100 100" xmlns="http://www.w3.org/2000/svg">
    <g fill="none" fill-rule="evenodd">
        <path d="M0 0h100v100H0z"/>
        <path d="M49.803 26c1.302 1.477 2.473 2.28 3.975 3.329 3.346 2.335 7.174 3.175 11.195 3.242 2.165.036 4.33.025 6.495.008.466-.003.651.12.631.612-.034.869-.005 1.739-.01 2.609-.034 5.698.09 11.405-.68 17.069a81.81 81.81 0 0 1-1.293 7.156c-.764 3.355-1.982 6.55-4.057 9.34-4.259 5.728-9.709 10.768-16.632 11.773h.246c-6.923-1.005-12.372-6.045-16.632-11.773-2.075-2.79-3.292-5.985-4.057-9.34a81.81 81.81 0 0 1-1.292-7.156c-.77-5.664-.646-11.371-.68-17.069-.006-.87.023-1.74-.01-2.609-.02-.492.165-.615.63-.612 2.165.017 4.331.028 6.495-.008 4.022-.067 7.85-.907 11.195-3.242 1.502-1.049 2.673-1.852 3.975-3.329h.506z" stroke="#FFF" stroke-width="2" stroke-linecap="round" stroke-linejoin="round"/>
        <path d="m45.343 50.828 3.536 3.536L55.243 48l2.121 2.121-8.485 8.486-5.657-5.657 2.121-2.122z" fill="#FFF"/>
        <rect stroke="#FFF" stroke-width="2" x="39" y="42" width="22" height="22" rx="11"/>
    </g>
</svg>
