<svg width="100" height="100" viewBox="0 0 100 100" xmlns="http://www.w3.org/2000/svg">
    <g fill="none" fill-rule="evenodd">
        <path d="M0 0h100v100H0z"/>
        <path d="M50 23.188c15.055 0 27.26 12.228 27.26 27.312 0 7.5-3.02 14.293-7.908 19.23L66.9 67.27l-1.116 1.119v8.944h8.927l1.116-1.119-2.413-2.419C79.337 67.82 83 59.59 83 50.5c0-18.26-14.774-33.063-33-33.063M50 77.813c-15.055 0-27.26-12.23-27.26-27.313 0-7.5 3.02-14.293 7.908-19.23L33.1 33.73l1.116-1.119v-8.944H25.29l-1.116 1.119 2.413 2.417C20.663 33.18 17 41.411 17 50.5c0 18.26 14.774 33.063 33 33.063" stroke="#FFF" stroke-width="1.5" stroke-linecap="round" stroke-linejoin="round"/>
        <text font-family="Gotham-Bold, Gotham" font-size="18.662" font-weight="bold" fill="#FFF">
                        <tspan x="39.525" y="56.748">5</tspan>
                        <tspan x="51.282" y="56.748" font-family="Gotham-Black, Gotham" font-size="13.064" font-weight="normal">%</tspan>
                    </text>
        <path d="M68.652 50.5c0 10.321-8.35 18.688-18.652 18.688-10.302 0-18.652-8.367-18.652-18.688 0-10.321 8.35-18.688 18.652-18.688 10.302 0 18.652 8.367 18.652 18.688z" stroke="#FFF" stroke-width="1.728"/>
        <path d="M55.74 77.813c0 .793-.644 1.437-1.436 1.437a1.437 1.437 0 0 1 0-2.875c.792 0 1.435.644 1.435 1.438M55.74 83.563c0 .793-.644 1.437-1.436 1.437a1.437 1.437 0 0 1 0-2.875c.792 0 1.435.644 1.435 1.438M47.13 17.438c0 .793-.642 1.437-1.434 1.437a1.437 1.437 0 0 1 0-2.875c.792 0 1.434.644 1.434 1.438M47.13 23.188c0 .793-.642 1.437-1.434 1.437a1.437 1.437 0 0 1 0-2.875c.792 0 1.434.644 1.434 1.438" fill="#FFF"/>
    </g>
</svg>
