<svg width="197" height="208" viewBox="0 0 197 208" xmlns="http://www.w3.org/2000/svg" xmlns:xlink="http://www.w3.org/1999/xlink">
    <defs>
        <linearGradient x1="4.119%" y1="47.338%" x2="98.405%" y2="52.823%" id="8onzy34hkc">
            <stop stop-color="#FDFDFD" offset="0%"/>
            <stop stop-color="#DFDFDF" offset="100%"/>
        </linearGradient>
        <filter x="-7.5%" y="-7.9%" width="112.7%" height="112.3%" filterUnits="objectBoundingBox" id="i4g3t9tpxa">
            <feGaussianBlur stdDeviation="4.347" in="SourceGraphic"/>
        </filter>
        <path d="M75.722 2.215 3.413 64.04c-3.803 3.252-4.541 8.81-1.64 12.417L85.405 180.45c3.02 3.755 8.578 4.046 12.408.65l72.788-64.54c3.736-3.313 4.297-8.957 1.26-12.607L87.722 2.82C86.167.949 83.918 0 81.593 0c-2.038 0-4.136.732-5.87 2.215" id="6gr6l7y4cb"/>
    </defs>
    <g fill="none" fill-rule="evenodd">
        <path d="M0 0h197v208H0z"/>
        <path d="m6.175 75.34 79.952 114.37c3.439 4.92 10.214 6.12 15.133 2.681.427-.298.832-.627 1.212-.984l70.079-65.797a10.867 10.867 0 0 0 .926-14.86L109.852 34.03 6.175 75.34z" fill="#000" opacity=".131" filter="url(#i4g3t9tpxa)" transform="translate(7)"/>
        <g fill="#BFBFBF">
            <path d="M104.237 180.414c-3.44 3.05-8.45 2.787-11.16-.585L9.461 75.861c-2.604-3.239-1.939-8.25 1.478-11.172L83.265 2.851C86.6-.001 91.442.242 94.063 3.394l84.111 101.155c2.727 3.278 2.219 8.368-1.137 11.343l-72.8 64.522z"/>
            <path d="M104.237 180.414c-3.44 3.05-8.45 2.787-11.16-.585L9.461 75.861c-2.604-3.239-1.939-8.25 1.478-11.172L83.265 2.851C86.6-.001 91.442.242 94.063 3.394l84.111 101.155c2.727 3.278 2.219 8.368-1.137 11.343l-72.8 64.522z"/>
            <path d="M104.237 180.414c-3.44 3.05-8.45 2.787-11.16-.585L9.461 75.861c-2.604-3.239-1.939-8.25 1.478-11.172L83.265 2.851C86.6-.001 91.442.242 94.063 3.394l84.111 101.155c2.727 3.278 2.219 8.368-1.137 11.343l-72.8 64.522z"/>
            <path d="M104.237 180.414c-3.44 3.05-8.45 2.787-11.16-.585L9.461 75.861c-2.604-3.239-1.939-8.25 1.478-11.172L83.265 2.851C86.6-.001 91.442.242 94.063 3.394l84.111 101.155c2.727 3.278 2.219 8.368-1.137 11.343l-72.8 64.522z"/>
            <path d="M104.237 180.414c-3.44 3.05-8.45 2.787-11.16-.585L9.461 75.861c-2.604-3.239-1.939-8.25 1.478-11.172L83.265 2.851C86.6-.001 91.442.242 94.063 3.394l84.111 101.155c2.727 3.278 2.219 8.368-1.137 11.343l-72.8 64.522z"/>
            <path d="M104.237 180.414c-3.44 3.05-8.45 2.787-11.16-.585L9.461 75.861c-2.604-3.239-1.939-8.25 1.478-11.172L83.265 2.851C86.6-.001 91.442.242 94.063 3.394l84.111 101.155c2.727 3.278 2.219 8.368-1.137 11.343l-72.8 64.522z"/>
            <path d="M104.237 180.414c-3.44 3.05-8.45 2.787-11.16-.585L9.461 75.861c-2.604-3.239-1.939-8.25 1.478-11.172L83.265 2.851C86.6-.001 91.442.242 94.063 3.394l84.111 101.155c2.727 3.278 2.219 8.368-1.137 11.343l-72.8 64.522z"/>
            <path d="M104.237 180.414c-3.44 3.05-8.45 2.787-11.16-.585L9.461 75.861c-2.604-3.239-1.939-8.25 1.478-11.172L83.265 2.851C86.6-.001 91.442.242 94.063 3.394l84.111 101.155c2.727 3.278 2.219 8.368-1.137 11.343l-72.8 64.522z"/>
            <path d="M104.237 180.414c-3.44 3.05-8.45 2.787-11.16-.585L9.461 75.861c-2.604-3.239-1.939-8.25 1.478-11.172L83.265 2.851C86.6-.001 91.442.242 94.063 3.394l84.111 101.155c2.727 3.278 2.219 8.368-1.137 11.343l-72.8 64.522z"/>
            <path d="M104.237 180.414c-3.44 3.05-8.45 2.787-11.16-.585L9.461 75.861c-2.604-3.239-1.939-8.25 1.478-11.172L83.265 2.851C86.6-.001 91.442.242 94.063 3.394l84.111 101.155c2.727 3.278 2.219 8.368-1.137 11.343l-72.8 64.522z"/>
            <path d="M104.237 180.414c-3.44 3.05-8.45 2.787-11.16-.585L9.461 75.861c-2.604-3.239-1.939-8.25 1.478-11.172L83.265 2.851C86.6-.001 91.442.242 94.063 3.394l84.111 101.155c2.727 3.278 2.219 8.368-1.137 11.343l-72.8 64.522z"/>
            <path d="M104.237 180.414c-3.44 3.05-8.45 2.787-11.16-.585L9.461 75.861c-2.604-3.239-1.939-8.25 1.478-11.172L83.265 2.851C86.6-.001 91.442.242 94.063 3.394l84.111 101.155c2.727 3.278 2.219 8.368-1.137 11.343l-72.8 64.522z"/>
            <path d="M104.237 180.414c-3.44 3.05-8.45 2.787-11.16-.585L9.461 75.861c-2.604-3.239-1.939-8.25 1.478-11.172L83.265 2.851C86.6-.001 91.442.242 94.063 3.394l84.111 101.155c2.727 3.278 2.219 8.368-1.137 11.343l-72.8 64.522z"/>
            <path d="M104.237 180.414c-3.44 3.05-8.45 2.787-11.16-.585L9.461 75.861c-2.604-3.239-1.939-8.25 1.478-11.172L83.265 2.851C86.6-.001 91.442.242 94.063 3.394l84.111 101.155c2.727 3.278 2.219 8.368-1.137 11.343l-72.8 64.522z"/>
            <path d="M104.237 180.414c-3.44 3.05-8.45 2.787-11.16-.585L9.461 75.861c-2.604-3.239-1.939-8.25 1.478-11.172L83.265 2.851C86.6-.001 91.442.242 94.063 3.394l84.111 101.155c2.727 3.278 2.219 8.368-1.137 11.343l-72.8 64.522z"/>
            <path d="M104.237 180.414c-3.44 3.05-8.45 2.787-11.16-.585L9.461 75.861c-2.604-3.239-1.939-8.25 1.478-11.172L83.265 2.851C86.6-.001 91.442.242 94.063 3.394l84.111 101.155c2.727 3.278 2.219 8.368-1.137 11.343l-72.8 64.522z"/>
            <path d="M104.237 180.414c-3.44 3.05-8.45 2.787-11.16-.585L9.461 75.861c-2.604-3.239-1.939-8.25 1.478-11.172L83.265 2.851C86.6-.001 91.442.242 94.063 3.394l84.111 101.155c2.727 3.278 2.219 8.368-1.137 11.343l-72.8 64.522z"/>
            <path d="M104.237 180.414c-3.44 3.05-8.45 2.787-11.16-.585L9.461 75.861c-2.604-3.239-1.939-8.25 1.478-11.172L83.265 2.851C86.6-.001 91.442.242 94.063 3.394l84.111 101.155c2.727 3.278 2.219 8.368-1.137 11.343l-72.8 64.522z"/>
            <path d="M104.237 180.414c-3.44 3.05-8.45 2.787-11.16-.585L9.461 75.861c-2.604-3.239-1.939-8.25 1.478-11.172L83.265 2.851C86.6-.001 91.442.242 94.063 3.394l84.111 101.155c2.727 3.278 2.219 8.368-1.137 11.343l-72.8 64.522z"/>
            <path d="M104.237 180.414c-3.44 3.05-8.45 2.787-11.16-.585L9.461 75.861c-2.604-3.239-1.939-8.25 1.478-11.172L83.265 2.851C86.6-.001 91.442.242 94.063 3.394l84.111 101.155c2.727 3.278 2.219 8.368-1.137 11.343l-72.8 64.522z"/>
            <path d="M104.237 180.414c-3.44 3.05-8.45 2.787-11.16-.585L9.461 75.861c-2.604-3.239-1.939-8.25 1.478-11.172L83.265 2.851C86.6-.001 91.442.242 94.063 3.394l84.111 101.155c2.727 3.278 2.219 8.368-1.137 11.343l-72.8 64.522z"/>
            <path d="M104.237 180.414c-3.44 3.05-8.45 2.787-11.16-.585L9.461 75.861c-2.604-3.239-1.939-8.25 1.478-11.172L83.265 2.851C86.6-.001 91.442.242 94.063 3.394l84.111 101.155c2.727 3.278 2.219 8.368-1.137 11.343l-72.8 64.522z"/>
            <path d="M104.237 180.414c-3.44 3.05-8.45 2.787-11.16-.585L9.461 75.861c-2.604-3.239-1.939-8.25 1.478-11.172L83.265 2.851C86.6-.001 91.442.242 94.063 3.394l84.111 101.155c2.727 3.278 2.219 8.368-1.137 11.343l-72.8 64.522z"/>
            <path d="M104.237 180.414c-3.44 3.05-8.45 2.787-11.16-.585L9.461 75.861c-2.604-3.239-1.939-8.25 1.478-11.172L83.265 2.851C86.6-.001 91.442.242 94.063 3.394l84.111 101.155c2.727 3.278 2.219 8.368-1.137 11.343l-72.8 64.522z"/>
        </g>
        <path d="m179.448 116.687-72.782 64.543c-3.83 3.395-9.388 3.103-12.408-.65L10.61 76.581c-2.9-3.607-2.163-9.165 1.64-12.417L84.554 2.338c3.712-3.173 9.08-2.904 12 .604l84.153 101.137c3.036 3.65 2.477 9.296-1.26 12.608" fill="#FAFAFA"/>
        <path d="m177.588 116.557-72.801 64.539c-3.83 3.395-9.389 3.103-12.407-.65L8.771 76.453c-2.9-3.605-2.16-9.164 1.643-12.416L82.737 2.214c3.713-3.174 9.081-2.903 12 .604l84.115 101.132c3.035 3.65 2.473 9.295-1.264 12.607" fill="#FFF"/>
        <g transform="translate(8.217 .06)">
            <mask id="kxozllhmqd" fill="#fff">
                <use xlink:href="#6gr6l7y4cb"/>
            </mask>
            <path d="M75.722 2.215 3.413 64.04c-3.803 3.252-4.541 8.81-1.64 12.417L85.405 180.45c3.02 3.755 8.578 4.046 12.408.65l72.788-64.54c3.736-3.313 4.297-8.957 1.26-12.607L87.722 2.82C86.167.949 83.918 0 81.593 0c-2.038 0-4.136.732-5.87 2.215" fill="url(#8onzy34hkc)" mask="url(#kxozllhmqd)"/>
        </g>
        <g fill="#F80010">
            <path d="M95.147 58.974c-4.324 1.745-7 4.415-8.652 7.17-3.156 5.266-2.566 10.845-2.566 10.846 0 0-5.244-1.55-10.841.758-2.935 1.21-5.97 3.482-8.406 7.596-7.107 12.007.635 18.706 1.336 19.45.282.3 2.466 3.119 6.984 4.433 1.471.506 3.09.808 4.789.673 4.41.013 13.855-1.783 16.786-1.833 2.932-.049 13.758-.79 15.775 1.22-1.584-2.39.91-13.285 1.439-16.253.529-2.965 3.779-12.216 4.488-16.67.403-1.687.382-3.37.144-4.936-.507-4.766-2.816-7.441-3.054-7.777-.588-.831-5.657-9.747-18.222-4.677M23.475 75.721c-.599.241-.972.61-1.203.989-.442.725-.37 1.492-.37 1.492s-.719-.212-1.49.105c-.404.166-.823.477-1.162 1.04-.987 1.642.065 2.554.16 2.656.038.04.333.424.948.603.2.068.42.11.654.091.602.001 1.894-.242 2.295-.249.4-.007 1.88-.108 2.151.165-.21-.324.154-1.809.232-2.214.08-.405.545-1.672.653-2.283.06-.232.06-.463.031-.679-.058-.655-.37-1.024-.402-1.07-.08-.115-.757-1.347-2.497-.646M17.934 71.277l-1.287-1.06a157.573 157.573 0 0 1-2.815-2.364l-.033.028c.61 1.119 1.178 2.188 1.74 3.285l.767 1.506 1.628-1.395m.864.707c-.79.677-1.184 1.014-1.973 1.692l1.543 3.008-.704.604c-1.976-3.993-2.96-5.986-4.927-9.965.31-.266.465-.4.776-.665l8.598 6.815-.726.624-2.587-2.113M170.905 109.224l1.337 1.068c.972.782 1.92 1.565 2.909 2.404l.033-.03a173.521 173.521 0 0 1-1.855-3.337l-.825-1.52-1.6 1.415m-.59-5.477.715-.632c2.1 4.035 3.154 6.055 5.262 10.104l-.764.677-8.866-6.921.691-.611 2.663 2.141 1.94-1.714-1.64-3.044M169.062 101.316c-.325.569-.737.883-1.14 1.05-.766.32-1.493.106-1.493.106s.094.775-.331 1.507c-.224.384-.59.756-1.185.999-1.733.709-2.446-.536-2.528-.652-.034-.047-.356-.42-.432-1.082a1.782 1.782 0 0 1 .014-.685c.092-.617.528-1.895.598-2.304.068-.408.395-1.902.175-2.229.28.275 1.762.174 2.164.167.402-.007 1.692-.253 2.296-.252.233-.017.456.024.659.094.622.179.929.565.968.606.099.101 1.18 1.02.235 2.675"/>
        </g>
    </g>
</svg>
