<svg width="234" height="505" viewBox="0 0 234 505" xmlns="http://www.w3.org/2000/svg" xmlns:xlink="http://www.w3.org/1999/xlink">
    <defs>
        <path id="1jr4mu9tbb" d="M0 0h154.044v162.227H0z"/>
        <path d="M67.106 1.959 3.025 56.624C-.345 59.5-1 64.414 1.57 67.604l74.116 91.95c2.677 3.321 7.602 3.578 10.996.575l64.506-57.066c3.31-2.93 3.807-7.92 1.116-11.147L77.74 2.492C76.362.84 74.369 0 72.308 0c-1.806 0-3.665.647-5.202 1.959" id="osgjasnbtd"/>
        <path id="vrdn1g03uh" d="M0 0h95.933v159.094H0z"/>
        <path id="mhu5z6fiij" d="M0 0h95.78v158.926H0z"/>
        <path d="m88.095.14-77.66 15.268c-3.798.747-6.952 4.842-7.067 9.16L.004 151.202c-.123 4.649 2.955 8.152 6.896 7.812l80.838-6.958c4.478-.385 8.13-4.75 8.13-9.732l.015-135.387C95.883 2.85 93.129 0 89.51 0c-.459 0-.933.045-1.415.14" id="ja72qdv82l"/>
        <path id="yhq4916anp" d="M0 0h104.67v134.769H0z"/>
        <path d="M82.29.495 6.823 25.126C2.96 26.386-.09 29.855.002 32.897l2.985 97.02c.12 3.877 3.79 5.955 8.202 4.607l86.4-26.37c4.567-1.393 7.8-5.641 7.221-9.453L90.32 3.514C89.984 1.307 87.92 0 85.254 0c-.93 0-1.935.16-2.965.495" id="47qkb8uaxr"/>
        <path id="duvd5kf69v" d="M0 0h154.766v103.504H0z"/>
        <path id="cefipn2iox" d="M0 0h154.77v103.399H0z"/>
        <path d="M76.439.014 4.415 4.136C.41 4.366-1.168 6.866.927 9.732L65.623 98.29c2.502 3.423 7.913 5.702 12.044 5.071l73.807-11.262c3.561-.544 4.346-3.517 1.79-6.63L86.678 4.425C84.609 1.908 80.36 0 76.939 0c-.169 0-.336.005-.5.014" id="5ql9crb9bz"/>
        <linearGradient x1="3.911%" y1="47.338%" x2="98.624%" y2="52.823%" id="c3biua5kye">
            <stop stop-color="#FDFDFD" offset="0%"/>
            <stop stop-color="#DFDFDF" offset="100%"/>
        </linearGradient>
        <linearGradient x1="28.994%" y1="21.575%" x2="74.644%" y2="83.237%" id="2vurbelogm">
            <stop stop-color="#FDFDFD" offset="0%"/>
            <stop stop-color="#DFDFDF" offset="100%"/>
        </linearGradient>
        <linearGradient x1="18.069%" y1="26.058%" x2="81.141%" y2="78.572%" id="pgrqtyofis">
            <stop stop-color="#FDFDFD" offset="0%"/>
            <stop stop-color="#DFDFDF" offset="100%"/>
        </linearGradient>
        <linearGradient x1="-4.325%" y1="35.732%" x2="105.162%" y2="64.79%" id="gjo8h15zqA">
            <stop stop-color="#FDFDFD" offset="0%"/>
            <stop stop-color="#DFDFDF" offset="100%"/>
        </linearGradient>
        <linearGradient x1="11.029%" y1="47.078%" x2="100%" y2="47.078%" id="acudpx2sdC">
            <stop stop-color="#FEFEFE" offset="0%"/>
            <stop stop-color="#FFF" stop-opacity="0" offset="100%"/>
        </linearGradient>
        <filter x="-7.5%" y="-7.8%" width="112.6%" height="112.3%" filterUnits="objectBoundingBox" id="jjg49a8pza">
            <feGaussianBlur stdDeviation="3.84" in="SourceGraphic"/>
        </filter>
        <filter x="-13.3%" y="-8.9%" width="126.7%" height="117.6%" filterUnits="objectBoundingBox" id="svr61y6uig">
            <feGaussianBlur stdDeviation="4.8" in="SourceGraphic"/>
        </filter>
        <filter x="-23.5%" y="-22.8%" width="145.8%" height="143.3%" filterUnits="objectBoundingBox" id="5zfg3wx5fo">
            <feGaussianBlur stdDeviation="8.64" in="SourceGraphic"/>
        </filter>
        <filter x="-6.2%" y="-9.9%" width="112.5%" height="116.2%" filterUnits="objectBoundingBox" id="x0aon8iafu">
            <feGaussianBlur stdDeviation="2.88" in="SourceGraphic"/>
        </filter>
    </defs>
    <g fill="none" fill-rule="evenodd">
        <path d="M5.473 66.617 76.35 167.778a9.6 9.6 0 0 0 14.425 1.497l62.139-58.21a9.6 9.6 0 0 0 .82-13.142L97.35 30.088 5.473 66.617z" fill="#000" opacity=".037" filter="url(#jjg49a8pza)" transform="rotate(-6 3080.98 -11.476)"/>
        <g fill="#BFBFBF">
            <path d="M120.452 471.629c-2.75 3-7.19 3.233-9.89.52l-83.303-83.68c-2.595-2.608-2.471-7.076.27-9.962l58.028-61.078c2.676-2.816 6.966-3.05 9.567-.522l83.48 81.16c2.707 2.63 2.73 7.152.047 10.08l-58.199 63.482z"/>
            <path d="M120.452 471.629c-2.75 3-7.19 3.233-9.89.52l-83.303-83.68c-2.595-2.608-2.471-7.076.27-9.962l58.028-61.078c2.676-2.816 6.966-3.05 9.567-.522l83.48 81.16c2.707 2.63 2.73 7.152.047 10.08l-58.199 63.482z"/>
            <path d="M120.452 471.629c-2.75 3-7.19 3.233-9.89.52l-83.303-83.68c-2.595-2.608-2.471-7.076.27-9.962l58.028-61.078c2.676-2.816 6.966-3.05 9.567-.522l83.48 81.16c2.707 2.63 2.73 7.152.047 10.08l-58.199 63.482z"/>
            <path d="M120.452 471.629c-2.75 3-7.19 3.233-9.89.52l-83.303-83.68c-2.595-2.608-2.471-7.076.27-9.962l58.028-61.078c2.676-2.816 6.966-3.05 9.567-.522l83.48 81.16c2.707 2.63 2.73 7.152.047 10.08l-58.199 63.482z"/>
            <path d="M120.452 471.629c-2.75 3-7.19 3.233-9.89.52l-83.303-83.68c-2.595-2.608-2.471-7.076.27-9.962l58.028-61.078c2.676-2.816 6.966-3.05 9.567-.522l83.48 81.16c2.707 2.63 2.73 7.152.047 10.08l-58.199 63.482z"/>
            <path d="M120.452 471.629c-2.75 3-7.19 3.233-9.89.52l-83.303-83.68c-2.595-2.608-2.471-7.076.27-9.962l58.028-61.078c2.676-2.816 6.966-3.05 9.567-.522l83.48 81.16c2.707 2.63 2.73 7.152.047 10.08l-58.199 63.482z"/>
            <path d="M120.452 471.629c-2.75 3-7.19 3.233-9.89.52l-83.303-83.68c-2.595-2.608-2.471-7.076.27-9.962l58.028-61.078c2.676-2.816 6.966-3.05 9.567-.522l83.48 81.16c2.707 2.63 2.73 7.152.047 10.08l-58.199 63.482z"/>
            <path d="M120.452 471.629c-2.75 3-7.19 3.233-9.89.52l-83.303-83.68c-2.595-2.608-2.471-7.076.27-9.962l58.028-61.078c2.676-2.816 6.966-3.05 9.567-.522l83.48 81.16c2.707 2.63 2.73 7.152.047 10.08l-58.199 63.482z"/>
            <path d="M120.452 471.629c-2.75 3-7.19 3.233-9.89.52l-83.303-83.68c-2.595-2.608-2.471-7.076.27-9.962l58.028-61.078c2.676-2.816 6.966-3.05 9.567-.522l83.48 81.16c2.707 2.63 2.73 7.152.047 10.08l-58.199 63.482z"/>
            <path d="M120.452 471.629c-2.75 3-7.19 3.233-9.89.52l-83.303-83.68c-2.595-2.608-2.471-7.076.27-9.962l58.028-61.078c2.676-2.816 6.966-3.05 9.567-.522l83.48 81.16c2.707 2.63 2.73 7.152.047 10.08l-58.199 63.482z"/>
            <path d="M120.452 471.629c-2.75 3-7.19 3.233-9.89.52l-83.303-83.68c-2.595-2.608-2.471-7.076.27-9.962l58.028-61.078c2.676-2.816 6.966-3.05 9.567-.522l83.48 81.16c2.707 2.63 2.73 7.152.047 10.08l-58.199 63.482z"/>
            <path d="M120.452 471.629c-2.75 3-7.19 3.233-9.89.52l-83.303-83.68c-2.595-2.608-2.471-7.076.27-9.962l58.028-61.078c2.676-2.816 6.966-3.05 9.567-.522l83.48 81.16c2.707 2.63 2.73 7.152.047 10.08l-58.199 63.482z"/>
            <path d="M120.452 471.629c-2.75 3-7.19 3.233-9.89.52l-83.303-83.68c-2.595-2.608-2.471-7.076.27-9.962l58.028-61.078c2.676-2.816 6.966-3.05 9.567-.522l83.48 81.16c2.707 2.63 2.73 7.152.047 10.08l-58.199 63.482z"/>
            <path d="M120.452 471.629c-2.75 3-7.19 3.233-9.89.52l-83.303-83.68c-2.595-2.608-2.471-7.076.27-9.962l58.028-61.078c2.676-2.816 6.966-3.05 9.567-.522l83.48 81.16c2.707 2.63 2.73 7.152.047 10.08l-58.199 63.482z"/>
            <path d="M120.452 471.629c-2.75 3-7.19 3.233-9.89.52l-83.303-83.68c-2.595-2.608-2.471-7.076.27-9.962l58.028-61.078c2.676-2.816 6.966-3.05 9.567-.522l83.48 81.16c2.707 2.63 2.73 7.152.047 10.08l-58.199 63.482z"/>
            <path d="M120.452 471.629c-2.75 3-7.19 3.233-9.89.52l-83.303-83.68c-2.595-2.608-2.471-7.076.27-9.962l58.028-61.078c2.676-2.816 6.966-3.05 9.567-.522l83.48 81.16c2.707 2.63 2.73 7.152.047 10.08l-58.199 63.482z"/>
            <path d="M120.452 471.629c-2.75 3-7.19 3.233-9.89.52l-83.303-83.68c-2.595-2.608-2.471-7.076.27-9.962l58.028-61.078c2.676-2.816 6.966-3.05 9.567-.522l83.48 81.16c2.707 2.63 2.73 7.152.047 10.08l-58.199 63.482z"/>
            <path d="M120.452 471.629c-2.75 3-7.19 3.233-9.89.52l-83.303-83.68c-2.595-2.608-2.471-7.076.27-9.962l58.028-61.078c2.676-2.816 6.966-3.05 9.567-.522l83.48 81.16c2.707 2.63 2.73 7.152.047 10.08l-58.199 63.482z"/>
            <path d="M120.452 471.629c-2.75 3-7.19 3.233-9.89.52l-83.303-83.68c-2.595-2.608-2.471-7.076.27-9.962l58.028-61.078c2.676-2.816 6.966-3.05 9.567-.522l83.48 81.16c2.707 2.63 2.73 7.152.047 10.08l-58.199 63.482z"/>
            <path d="M120.452 471.629c-2.75 3-7.19 3.233-9.89.52l-83.303-83.68c-2.595-2.608-2.471-7.076.27-9.962l58.028-61.078c2.676-2.816 6.966-3.05 9.567-.522l83.48 81.16c2.707 2.63 2.73 7.152.047 10.08l-58.199 63.482z"/>
            <path d="M120.452 471.629c-2.75 3-7.19 3.233-9.89.52l-83.303-83.68c-2.595-2.608-2.471-7.076.27-9.962l58.028-61.078c2.676-2.816 6.966-3.05 9.567-.522l83.48 81.16c2.707 2.63 2.73 7.152.047 10.08l-58.199 63.482z"/>
            <path d="M120.452 471.629c-2.75 3-7.19 3.233-9.89.52l-83.303-83.68c-2.595-2.608-2.471-7.076.27-9.962l58.028-61.078c2.676-2.816 6.966-3.05 9.567-.522l83.48 81.16c2.707 2.63 2.73 7.152.047 10.08l-58.199 63.482z"/>
            <path d="M120.452 471.629c-2.75 3-7.19 3.233-9.89.52l-83.303-83.68c-2.595-2.608-2.471-7.076.27-9.962l58.028-61.078c2.676-2.816 6.966-3.05 9.567-.522l83.48 81.16c2.707 2.63 2.73 7.152.047 10.08l-58.199 63.482z"/>
            <path d="M120.452 471.629c-2.75 3-7.19 3.233-9.89.52l-83.303-83.68c-2.595-2.608-2.471-7.076.27-9.962l58.028-61.078c2.676-2.816 6.966-3.05 9.567-.522l83.48 81.16c2.707 2.63 2.73 7.152.047 10.08l-58.199 63.482z"/>
        </g>
        <g transform="rotate(-6 3081.21 -27.07)">
            <mask id="fhkn0ai16c" fill="#fff">
                <use xlink:href="#1jr4mu9tbb"/>
            </mask>
            <path d="m151.195 103.066-64.5 57.068c-3.393 3.002-8.319 2.744-10.995-.574L1.57 67.605C-1 64.415-.346 59.5 3.025 56.625L67.1 1.958c3.29-2.806 8.047-2.568 10.635.534l74.576 89.426c2.69 3.227 2.195 8.219-1.116 11.148" fill="#C9C7C7" mask="url(#fhkn0ai16c)"/>
        </g>
        <path d="M179.198 408.68 121 472.177c-3.061 3.34-7.987 3.599-10.994.578l-83.3-83.702c-2.89-2.902-2.752-7.858.3-11.07l58.028-61.065c2.979-3.134 7.736-3.394 10.632-.58l83.482 81.14c3.012 2.928 3.039 7.944.051 11.202" fill="#FFF"/>
        <g transform="rotate(-6 3080.945 -21.792)">
            <mask id="jo4gqiioff" fill="#fff">
                <use xlink:href="#osgjasnbtd"/>
            </mask>
            <path d="M67.106 1.959 3.025 56.624C-.345 59.5-1 64.414 1.57 67.604l74.116 91.95c2.677 3.321 7.602 3.578 10.996.575l64.506-57.066c3.31-2.93 3.807-7.92 1.116-11.147L77.74 2.492C76.362.84 74.369 0 72.308 0c-1.806 0-3.665.647-5.202 1.959" fill="url(#c3biua5kye)" mask="url(#jo4gqiioff)"/>
        </g>
        <g fill="#F80010">
            <path d="M101.217 365.681c-3.65 1.935-5.762 4.53-6.963 7.106-2.295 4.923-1.26 9.775-1.26 9.776 0 0-4.764-.878-9.484 1.671-2.475 1.336-4.94 3.615-6.706 7.458-5.154 11.217 2.288 16.39 2.975 16.98.276.237 2.461 2.514 6.565 3.251 1.343.309 2.798.424 4.282.148 3.89-.397 12.047-2.851 14.625-3.167 2.58-.314 12.053-1.969 14.016-.388-1.616-1.955-.426-11.767-.234-14.425.193-2.657 2.202-11.093 2.415-15.075.2-1.521.025-2.999-.329-4.354-.887-4.144-3.17-6.283-3.41-6.556-.596-.676-5.887-8.047-16.492-2.425M39.596 387.047c-.505.268-.8.626-.969.981-.323.679-.189 1.347-.189 1.347s-.652-.12-1.302.23c-.341.183-.681.496-.928 1.022-.719 1.535.293 2.24.385 2.321.039.032.334.341.892.442.184.042.381.057.585.02.53-.055 1.647-.389 2-.432.352-.043 1.647-.27 1.91-.054-.214-.266-.03-1.605 0-1.968.033-.364.327-1.522.365-2.069.031-.209.01-.412-.035-.6-.112-.57-.42-.866-.453-.903-.08-.094-.792-1.115-2.261-.337M34.302 383.652l-1.232-.812c-.901-.591-1.78-1.184-2.7-1.819l-.026.028c.641.927 1.24 1.815 1.837 2.728.327.501.49.751.815 1.253l1.306-1.378m.827.542-1.583 1.67 1.638 2.503-.564.596-5.264-8.306.622-.657 8.208 5.196-.582.616-2.475-1.618M172.63 402.851l1.277.816c.93.597 1.837 1.198 2.786 1.844l.026-.029c-.677-.942-1.31-1.841-1.942-2.763l-.868-1.26-1.28 1.392m-1.025-4.761.571-.622 5.571 8.398-.61.665-8.454-5.264.553-.602 2.545 1.637 1.551-1.688-1.727-2.524M170.275 396.068c-.234.53-.568.845-.907 1.03-.646.352-1.306.23-1.306.23s.153.673-.154 1.357c-.161.357-.449.719-.95.987-1.463.784-2.207-.244-2.29-.339-.034-.038-.352-.335-.48-.912a1.572 1.572 0 0 1-.051-.603c.024-.55.29-1.715.313-2.08.023-.366.173-1.71-.05-1.978.271.216 1.568-.01 1.921-.053.354-.044 1.469-.38 2.001-.434.204-.037.404-.021.59.021.564.1.87.411.909.444.096.08 1.134.788.454 2.33"/>
        </g>
        <g>
            <path d="m85.427 2.88 16.663 150.146a6.72 6.72 0 0 1-6.365 7.454l-86.84 4.065a6.72 6.72 0 0 1-6.992-7.459l13.173-117.88 70.36-36.327z" fill="#000" opacity=".109" filter="url(#svr61y6uig)" transform="rotate(37 -186.755 284.77)"/>
            <g transform="rotate(37 -188.834 285.765)">
                <mask id="f7narffkai" fill="#fff">
                    <use xlink:href="#vrdn1g03uh"/>
                </mask>
                <path d="m87.798 152.137-80.895 6.935c-3.942.338-7.022-3.17-6.9-7.82L3.358 24.555c.115-4.32 3.27-8.416 7.07-9.162L88.139.14c4.294-.842 7.794 2.196 7.794 6.803v135.459c0 4.985-3.654 9.351-8.135 9.735" fill="#C9C7C7" mask="url(#f7narffkai)"/>
            </g>
            <g transform="rotate(37 -186.755 284.77)">
                <mask id="2e6mcrphpk" fill="#fff">
                    <use xlink:href="#mhu5z6fiij"/>
                </mask>
                <path d="m87.615 151.9-80.727 7.003c-3.936.341-7.009-3.157-6.885-7.8L3.39 24.59c.116-4.315 3.266-8.407 7.057-9.155L88.006.141c4.284-.844 7.777 2.186 7.775 6.786l-.045 135.246c-.002 4.978-3.65 9.34-8.12 9.728" fill="#FFF" mask="url(#2e6mcrphpk)"/>
            </g>
            <g transform="rotate(37 -188.108 285.454)">
                <mask id="74b0sblein" fill="#fff">
                    <use xlink:href="#ja72qdv82l"/>
                </mask>
                <path d="m88.095.14-77.66 15.268c-3.798.747-6.952 4.842-7.067 9.16L.004 151.202c-.123 4.649 2.955 8.152 6.896 7.812l80.838-6.958c4.478-.385 8.13-4.75 8.13-9.732l.015-135.387C95.883 2.85 93.129 0 89.51 0c-.459 0-.933.045-1.415.14" fill="url(#2vurbelogm)" mask="url(#74b0sblein)"/>
            </g>
            <g fill="#000">
                <path d="M141.75 278.944c-4.565 5.968-13.094 8.09-18.987 4.735-2.99-1.703-4.702-4.487-5.05-7.578-2.744 3.319-5.026 8.495-2.016 14.115-2.71-2.701-5.529-4.509-7.19-5.47-.747-.43-1.258-.687-1.424-.782-.529-.306-4.257-2.826-9.829-4.415 7.033.216 11.677-3.568 14.172-7.002-3.428.931-7.021.678-9.918-.97-5.627-3.204-6.485-10.424-1.996-16.134 4.47-5.687 12.628-7.814 18.291-4.734a8.9 8.9 0 0 1 .798.498c.033.026.076.04.109.067.425-1.65 1.216-3.285 2.422-4.83 4.443-5.688 12.673-7.836 18.455-4.793.071.036.144.084.21.127.076.031.158.066.229.103 5.843 3.076 7.004 10.282 2.526 16.099a15.834 15.834 0 0 1-4.378 3.878c.045.015.079.043.123.058.3.127.603.263.897.424 5.93 3.223 7.099 10.66 2.555 16.604M123.091 203.691a1.528 1.528 0 0 0-.127-.055l-.017-.008c.24-.144.454-.327.63-.55.65-.82.5-1.821-.333-2.236l-.032-.014-.03-.017c-.831-.415-2.03-.089-2.678.729a1.864 1.864 0 0 0-.353.687l-.015-.01a1.305 1.305 0 0 0-.117-.066c-.83-.417-2.027-.09-2.676.727-.65.819-.507 1.82.321 2.24.212.106.448.164.693.178.246.013.5-.019.748-.09a2.514 2.514 0 0 1-2.045 1.025c.126.03.244.063.357.097l.093.03c.083.027.163.055.238.083l.07.026c.089.035.17.07.243.102l.065.03.131.062.073.037.058.03c.048.026.086.048.101.055l.106.05.058.029a3.03 3.03 0 0 1 .2.105c.02.01.04.02.061.033.068.04.142.083.22.133l.06.04c.063.042.13.087.196.136l.073.055c.088.067.176.138.265.217-.434-.74-.108-1.453.283-1.917.051.418.297.788.722 1.003.835.42 2.04.095 2.691-.729.652-.823.503-1.829-.333-2.247M126.556 328.915a1.428 1.428 0 0 1-.128-.088c-.005-.005-.013-.007-.018-.012a2.169 2.169 0 0 1-.384.803c-.711.938-2.028 1.25-2.94.695a.58.58 0 0 1-.033-.024.295.295 0 0 1-.036-.019c-.911-.554-1.073-1.762-.363-2.698.193-.254.427-.458.688-.616l-.019-.01a1.576 1.576 0 0 1-.139-.073c-.91-.551-1.07-1.755-.361-2.688.707-.933 2.018-1.246 2.928-.697a1.645 1.645 0 0 1 .795 1.232c.427-.527.777-1.352.3-2.254a5.03 5.03 0 0 0 .37.342c.074.062.145.119.214.172l.067.052c.085.063.167.12.242.17l.068.044c.049.032.097.062.14.088l.08.049.063.037.116.066.112.071.063.038.08.049c.043.025.092.053.145.081l.07.04c.081.043.17.09.27.136.023.012.052.024.078.036.081.037.169.074.26.112l.103.042c.124.047.255.094.394.138-1.121-.058-1.85.54-2.238 1.092.542-.14 1.115-.085 1.584.197.917.552 1.086 1.76.376 2.7-.71.94-2.03 1.252-2.947.697M127.685 196.453l.724-1.328c.526-.97 1.056-1.92 1.626-2.914l-.03-.015c-.89.839-1.739 1.63-2.615 2.428l-1.203 1.09 1.498.74m-.486.89c-.727-.36-1.09-.54-1.815-.897l-2.4 2.187-.643-.32 7.98-7.105.715.349c-1.837 3.5-2.76 5.255-4.612 8.785l-.67-.333 1.445-2.666M118.071 335.211l-.795 1.564a179.056 179.056 0 0 1-1.81 3.434c.014.009.02.013.034.02.98-.959 1.92-1.86 2.888-2.768l1.32-1.243-1.637-1.007m5.165-2.304.732.449c-3.519 3.222-5.281 4.836-8.813 8.068l-.779-.484 5.123-10.315.704.43-1.596 3.112c.793.487 1.19.73 1.985 1.22 1.058-.993 1.586-1.489 2.644-2.48"/>
            </g>
        </g>
        <g>
            <path d="m.72 47.026 3.966 92.227a7.68 7.68 0 0 0 9.966 7l89.748-28.075a7.68 7.68 0 0 0 5.21-8.971L93.507 35.614.721 47.026z" fill="#573C3C" opacity=".187" filter="url(#5zfg3wx5fo)" transform="translate(34.883 104.908)"/>
            <path d="m133.65 213.618-86.451 26.38c-4.416 1.347-8.089-.733-8.21-4.612l-3.03-97.094c-.095-3.043 2.957-6.514 6.822-7.775l75.505-24.639c3.983-1.3 7.583.042 8.037 3.022l14.549 95.258c.583 3.815-2.653 8.065-7.222 9.46" fill="#C9C7C7"/>
            <g transform="translate(34.883 104.908)">
                <mask id="gzxr7tknxq" fill="#fff">
                    <use xlink:href="#yhq4916anp"/>
                </mask>
                <path d="M97.382 108.006 11.08 134.358c-4.408 1.346-8.07-.727-8.186-4.599L.002 32.871c-.09-3.037 2.96-6.502 6.819-7.762L82.213.495c3.976-1.298 7.567.04 8.016 3.014l14.374 95.056c.575 3.806-2.66 8.047-7.221 9.44" fill="#FFF" mask="url(#gzxr7tknxq)"/>
            </g>
            <g transform="translate(35.604 105.207)">
                <mask id="8dri0fmsat" fill="#fff">
                    <use xlink:href="#47qkb8uaxr"/>
                </mask>
                <path d="M82.29.495 6.823 25.126C2.96 26.386-.09 29.855.002 32.897l2.985 97.02c.12 3.877 3.79 5.955 8.202 4.607l86.4-26.37c4.567-1.393 7.8-5.641 7.221-9.453L90.32 3.514C89.984 1.307 87.92 0 85.254 0c-.93 0-1.935.16-2.965.495" fill="url(#pgrqtyofis)" mask="url(#8dri0fmsat)"/>
            </g>
            <g fill="#F80010">
                <path d="M103.908 162.582c-8.982 8.782-17.528 28.116-17.528 28.116s-11.413-13.04-21.323-15.819c9.024-8.683 17.485-26.944 17.485-26.944s11.216 12.012 21.366 14.647M45.85 143.03c-1.609 1.502-3.22 4.719-3.22 4.719s-1.821-2.107-3.502-2.543c1.61-1.499 3.217-4.684 3.217-4.684s1.817 2.076 3.505 2.508M134.09 194.6c-2.037-.572-4.424-3.1-4.424-3.1s-1.5 3.73-3.208 5.456c2.027.576 4.425 3.145 4.425 3.145s1.501-3.772 3.207-5.501M42.987 136.504l-.305-1a62.679 62.679 0 0 1-.642-2.207l-.034.011c-.146.876-.293 1.71-.455 2.565l-.23 1.172 1.666-.541m.207.67-2.023.658-.452 2.355-.72.235c.648-3.118.97-4.662 1.608-7.725l.791-.258 2.168 6.5-.748.243-.624-2.007M130.541 205.019c.2.5.302.75.504 1.252.363.917.706 1.828 1.06 2.798l.04-.012c.06-1.097.129-2.134.213-3.189l.113-1.441-1.93.592m2.238-4.422.861-.264-.91 9.51c-.372.112-.556.17-.928.283l-3.412-8.177.828-.256.99 2.489 2.339-.719.232-2.866"/>
            </g>
        </g>
        <g>
            <path d="m16.275 27.12 36.94 72.903a20.16 20.16 0 0 0 22.654 10.5l78.9-18.793L16.275 27.12z" fill="#000" opacity=".13" filter="url(#x0aon8iafu)" transform="translate(47.2 23.98)"/>
            <g transform="translate(48.875 24.665)">
                <mask id="zbqk83sx5w" fill="#fff">
                    <use xlink:href="#duvd5kf69v"/>
                </mask>
                <path d="m151.48 92.119-73.764 11.28c-4.129.632-9.539-1.645-12.043-5.07L.93 9.752c-2.097-2.868-.523-5.37 3.48-5.6L76.397.014c3.496-.2 8.067 1.769 10.239 4.412l66.626 81.06c2.559 3.113 1.776 6.089-1.783 6.633" fill="#C9C7C7" mask="url(#zbqk83sx5w)"/>
            </g>
            <g transform="translate(47.2 23.98)">
                <mask id="kczya9yeiy" fill="#fff">
                    <use xlink:href="#cefipn2iox"/>
                </mask>
                <path d="m151.47 92.066-73.896 11.228c-4.136.629-9.549-1.648-12.047-5.072L.924 9.7c-2.092-2.866-.508-5.364 3.5-5.591l72.1-4.094c3.503-.199 8.075 1.771 10.243 4.413l66.506 81.014c2.555 3.111 1.764 6.083-1.803 6.625" fill="#FFF" mask="url(#kczya9yeiy)"/>
            </g>
            <g transform="translate(48.313 24.423)">
                <mask id="mrycci4hzB" fill="#fff">
                    <use xlink:href="#5ql9crb9bz"/>
                </mask>
                <path d="M76.439.014 4.415 4.136C.41 4.366-1.168 6.866.927 9.732L65.623 98.29c2.502 3.423 7.913 5.702 12.044 5.071l73.807-11.262c3.561-.544 4.346-3.517 1.79-6.63L86.678 4.425C84.609 1.908 80.36 0 76.939 0c-.169 0-.336.005-.5.014" fill="url(#gjo8h15zqA)" mask="url(#mrycci4hzB)"/>
            </g>
            <g fill="#000">
                <path d="M147.554 70.813c-.274-.306-4.142-4.451-9.237-6.222-3.646-1.268-11.505-3.659-13.918-4.588-2.416-.931-11.41-4.116-12.855-5.701 1.047 1.62-2.223 5.896-3.001 7.128-.784 1.237-4.327 4.753-5.755 6.55-2.02 2.54.735 6.98.95 7.306.407.62 3.736 6.901 15.225 8.564 5.962.862 8.803-.667 10.155-2.307 2.449 2.81 4.377 6.892.58 9.882 4.346-1.55 8.681-1.836 9.236-1.902.554-.066 4.524-.765 10.195-.42-7.248-1.65-11.427-5.444-13.38-8.29 3.436 1.095 7.894 1.788 11.482-.111 6.74-3.568.844-9.308.323-9.89M64.625 40.598c-.04-.046-.598-.68-1.41-.96-.58-.202-1.832-.583-2.212-.73-.381-.146-1.8-.648-2.013-.892.148.248-.433.883-.573 1.064-.14.182-.743.69-.988.948-.343.36.04 1.01.07 1.056.057.09.506.995 2.281 1.282.928.15 1.403-.054 1.644-.282.346.412.587.998-.063 1.396.713-.193 1.409-.21 1.5-.216.09-.007.74-.085 1.65-.006-1.14-.271-1.745-.832-2.01-1.248.536.173 1.246.293 1.869.036 1.186-.49.329-1.36.255-1.448M57.414 34.429l-1.022-1c-.749-.73-1.47-1.449-2.22-2.206l-.036.001c.384.78.739 1.522 1.086 2.278l.469 1.034 1.723-.107m.689.67-2.092.133.956 2.083c-.3.019-.449.03-.748.048l-2.974-6.804.82-.049 6.865 6.547-.77.05c-.824-.804-1.236-1.205-2.057-2.008M192.98 109.534l1.155 1.075c.842.786 1.66 1.565 2.516 2.391a.158.158 0 0 1 .03-.005 146.204 146.204 0 0 1-1.5-2.539l-.664-1.145-1.536.223m-.218-3.269.685-.097 4.211 7.533-.732.11-7.676-7.049.666-.095 2.293 2.146 1.866-.269-1.313-2.279M191.216 102.182c.036.05.515.739.283 1.151-.165.295-.602.882-.689 1.09-.088.208-.482.94-.297 1.208-.243-.26-1.63-.744-2.006-.887-.375-.143-1.59-.504-2.157-.699-.796-.271-1.427-.944-1.472-.994-.085-.093-1.031-1.011-.043-1.603.517-.31 1.183-.21 1.701-.046-.32-.442-.973-1.025-2.056-1.27.839.046 1.412-.066 1.491-.077.08-.01.704-.06 1.307-.299-.506.458-.176 1.084.216 1.516.173-.258.559-.5 1.42-.378 1.645.232 2.232 1.193 2.302 1.288"/>
            </g>
        </g>
        <path fill="url(#acudpx2sdC)" d="M0 0h220v498H0z"/>
    </g>
</svg>
