<svg width="293" height="632" viewBox="0 0 293 632" xmlns="http://www.w3.org/2000/svg" xmlns:xlink="http://www.w3.org/1999/xlink">
    <defs>
        <path id="wctg56kd0b" d="M0 0h192.555v202.947H0z"/>
        <path d="M83.882 2.45 3.781 70.837c-4.213 3.597-5.031 9.745-1.818 13.735L94.61 199.603c3.346 4.154 9.502 4.476 13.745.72l80.632-71.391c4.138-3.664 4.76-9.907 1.396-13.945L97.175 3.118C95.452 1.051 92.961 0 90.385 0c-2.258 0-4.581.81-6.503 2.45" id="8ydy4nk9yd"/>
        <path id="quacrjikhh" d="M0 0h119.916v199.027H0z"/>
        <path id="ayccjj0llj" d="M0 0h119.726v198.817H0z"/>
        <path d="m110.119.175-97.076 19.1c-4.746.935-8.689 6.058-8.833 11.46L.004 189.154c-.152 5.815 3.694 10.197 8.62 9.772l101.049-8.704c5.597-.482 10.161-5.942 10.161-12.175l.02-169.37c0-5.112-3.443-8.678-7.967-8.678-.573 0-1.165.056-1.768.175" id="qe024px9ll"/>
        <path id="ioq7jkfssp" d="M0 0h130.836v168.596H0z"/>
        <path d="M102.861.62 8.531 31.433C3.7 33.01-.115 37.348.002 41.154l3.73 121.373c.15 4.85 4.737 7.449 10.253 5.763l108-32.989c5.709-1.743 9.75-7.057 9.027-11.826L112.9 4.397c-.42-2.762-3-4.397-6.333-4.397-1.163 0-2.418.2-3.706.62" id="43fm90yu2r"/>
        <path id="mgwpo5vttv" d="M0 0h193.457v129.485H0z"/>
        <path id="wwnhq8oawx" d="M0 0h193.462v129.352H0z"/>
        <path d="M95.548.018 5.518 5.175c-5.005.288-6.977 3.414-4.359 7L82.03 122.96c3.127 4.283 9.891 7.133 15.054 6.344l92.26-14.089c4.451-.68 5.433-4.4 2.236-8.295L108.35 5.537C105.762 2.387 100.452 0 96.173 0c-.21 0-.42.006-.625.018" id="zksasxwziz"/>
        <linearGradient x1="3.985%" y1="47.338%" x2="98.546%" y2="52.823%" id="0usmbpmz5e">
            <stop stop-color="#FDFDFD" offset="0%"/>
            <stop stop-color="#DFDFDF" offset="100%"/>
        </linearGradient>
        <linearGradient x1="29.027%" y1="21.575%" x2="74.604%" y2="83.237%" id="owlupm6vhm">
            <stop stop-color="#FDFDFD" offset="0%"/>
            <stop stop-color="#DFDFDF" offset="100%"/>
        </linearGradient>
        <linearGradient x1="18.121%" y1="26.058%" x2="81.091%" y2="78.572%" id="novxlyx67s">
            <stop stop-color="#FDFDFD" offset="0%"/>
            <stop stop-color="#DFDFDF" offset="100%"/>
        </linearGradient>
        <linearGradient x1="-4.325%" y1="35.709%" x2="105.162%" y2="64.814%" id="62e785nfiA">
            <stop stop-color="#FDFDFD" offset="0%"/>
            <stop stop-color="#DFDFDF" offset="100%"/>
        </linearGradient>
        <filter x="-7.5%" y="-7.8%" width="112.6%" height="112.3%" filterUnits="objectBoundingBox" id="ye84ufr17a">
            <feGaussianBlur stdDeviation="4.8" in="SourceGraphic"/>
        </filter>
        <filter x="-13.3%" y="-8.9%" width="126.7%" height="117.5%" filterUnits="objectBoundingBox" id="9luy6qru0g">
            <feGaussianBlur stdDeviation="6" in="SourceGraphic"/>
        </filter>
        <filter x="-23.5%" y="-22.8%" width="145.8%" height="143.3%" filterUnits="objectBoundingBox" id="at3dwn1jpo">
            <feGaussianBlur stdDeviation="10.8" in="SourceGraphic"/>
        </filter>
        <filter x="-6.2%" y="-9.9%" width="112.5%" height="116.2%" filterUnits="objectBoundingBox" id="b3eywxvymu">
            <feGaussianBlur stdDeviation="3.6" in="SourceGraphic"/>
        </filter>
    </defs>
    <g fill="none" fill-rule="evenodd">
        <path d="m6.84 83.338 88.597 126.55c3.8 5.43 11.283 6.75 16.712 2.949a12 12 0 0 0 1.326-1.077l77.678-72.826a12 12 0 0 0 1.024-16.421L121.689 37.64 6.841 83.338z" fill="#000" opacity=".037" filter="url(#ye84ufr17a)" transform="rotate(-6 3854.224 -14.099)"/>
        <g fill="#BFBFBF">
            <path d="M150.573 590.01c-3.437 3.753-8.988 4.044-12.364.649L34.071 485.967c-3.244-3.261-3.09-8.851.337-12.461l72.53-76.402c3.344-3.523 8.707-3.816 11.959-.652l104.36 101.54c3.383 3.29 3.411 8.947.058 12.608l-72.742 79.41z"/>
            <path d="M150.573 590.01c-3.437 3.753-8.988 4.044-12.364.649L34.071 485.967c-3.244-3.261-3.09-8.851.337-12.461l72.53-76.402c3.344-3.523 8.707-3.816 11.959-.652l104.36 101.54c3.383 3.29 3.411 8.947.058 12.608l-72.742 79.41z"/>
            <path d="M150.573 590.01c-3.437 3.753-8.988 4.044-12.364.649L34.071 485.967c-3.244-3.261-3.09-8.851.337-12.461l72.53-76.402c3.344-3.523 8.707-3.816 11.959-.652l104.36 101.54c3.383 3.29 3.411 8.947.058 12.608l-72.742 79.41z"/>
            <path d="M150.573 590.01c-3.437 3.753-8.988 4.044-12.364.649L34.071 485.967c-3.244-3.261-3.09-8.851.337-12.461l72.53-76.402c3.344-3.523 8.707-3.816 11.959-.652l104.36 101.54c3.383 3.29 3.411 8.947.058 12.608l-72.742 79.41z"/>
            <path d="M150.573 590.01c-3.437 3.753-8.988 4.044-12.364.649L34.071 485.967c-3.244-3.261-3.09-8.851.337-12.461l72.53-76.402c3.344-3.523 8.707-3.816 11.959-.652l104.36 101.54c3.383 3.29 3.411 8.947.058 12.608l-72.742 79.41z"/>
            <path d="M150.573 590.01c-3.437 3.753-8.988 4.044-12.364.649L34.071 485.967c-3.244-3.261-3.09-8.851.337-12.461l72.53-76.402c3.344-3.523 8.707-3.816 11.959-.652l104.36 101.54c3.383 3.29 3.411 8.947.058 12.608l-72.742 79.41z"/>
            <path d="M150.573 590.01c-3.437 3.753-8.988 4.044-12.364.649L34.071 485.967c-3.244-3.261-3.09-8.851.337-12.461l72.53-76.402c3.344-3.523 8.707-3.816 11.959-.652l104.36 101.54c3.383 3.29 3.411 8.947.058 12.608l-72.742 79.41z"/>
            <path d="M150.573 590.01c-3.437 3.753-8.988 4.044-12.364.649L34.071 485.967c-3.244-3.261-3.09-8.851.337-12.461l72.53-76.402c3.344-3.523 8.707-3.816 11.959-.652l104.36 101.54c3.383 3.29 3.411 8.947.058 12.608l-72.742 79.41z"/>
            <path d="M150.573 590.01c-3.437 3.753-8.988 4.044-12.364.649L34.071 485.967c-3.244-3.261-3.09-8.851.337-12.461l72.53-76.402c3.344-3.523 8.707-3.816 11.959-.652l104.36 101.54c3.383 3.29 3.411 8.947.058 12.608l-72.742 79.41z"/>
            <path d="M150.573 590.01c-3.437 3.753-8.988 4.044-12.364.649L34.071 485.967c-3.244-3.261-3.09-8.851.337-12.461l72.53-76.402c3.344-3.523 8.707-3.816 11.959-.652l104.36 101.54c3.383 3.29 3.411 8.947.058 12.608l-72.742 79.41z"/>
            <path d="M150.573 590.01c-3.437 3.753-8.988 4.044-12.364.649L34.071 485.967c-3.244-3.261-3.09-8.851.337-12.461l72.53-76.402c3.344-3.523 8.707-3.816 11.959-.652l104.36 101.54c3.383 3.29 3.411 8.947.058 12.608l-72.742 79.41z"/>
            <path d="M150.573 590.01c-3.437 3.753-8.988 4.044-12.364.649L34.071 485.967c-3.244-3.261-3.09-8.851.337-12.461l72.53-76.402c3.344-3.523 8.707-3.816 11.959-.652l104.36 101.54c3.383 3.29 3.411 8.947.058 12.608l-72.742 79.41z"/>
            <path d="M150.573 590.01c-3.437 3.753-8.988 4.044-12.364.649L34.071 485.967c-3.244-3.261-3.09-8.851.337-12.461l72.53-76.402c3.344-3.523 8.707-3.816 11.959-.652l104.36 101.54c3.383 3.29 3.411 8.947.058 12.608l-72.742 79.41z"/>
            <path d="M150.573 590.01c-3.437 3.753-8.988 4.044-12.364.649L34.071 485.967c-3.244-3.261-3.09-8.851.337-12.461l72.53-76.402c3.344-3.523 8.707-3.816 11.959-.652l104.36 101.54c3.383 3.29 3.411 8.947.058 12.608l-72.742 79.41z"/>
            <path d="M150.573 590.01c-3.437 3.753-8.988 4.044-12.364.649L34.071 485.967c-3.244-3.261-3.09-8.851.337-12.461l72.53-76.402c3.344-3.523 8.707-3.816 11.959-.652l104.36 101.54c3.383 3.29 3.411 8.947.058 12.608l-72.742 79.41z"/>
            <path d="M150.573 590.01c-3.437 3.753-8.988 4.044-12.364.649L34.071 485.967c-3.244-3.261-3.09-8.851.337-12.461l72.53-76.402c3.344-3.523 8.707-3.816 11.959-.652l104.36 101.54c3.383 3.29 3.411 8.947.058 12.608l-72.742 79.41z"/>
            <path d="M150.573 590.01c-3.437 3.753-8.988 4.044-12.364.649L34.071 485.967c-3.244-3.261-3.09-8.851.337-12.461l72.53-76.402c3.344-3.523 8.707-3.816 11.959-.652l104.36 101.54c3.383 3.29 3.411 8.947.058 12.608l-72.742 79.41z"/>
            <path d="M150.573 590.01c-3.437 3.753-8.988 4.044-12.364.649L34.071 485.967c-3.244-3.261-3.09-8.851.337-12.461l72.53-76.402c3.344-3.523 8.707-3.816 11.959-.652l104.36 101.54c3.383 3.29 3.411 8.947.058 12.608l-72.742 79.41z"/>
            <path d="M150.573 590.01c-3.437 3.753-8.988 4.044-12.364.649L34.071 485.967c-3.244-3.261-3.09-8.851.337-12.461l72.53-76.402c3.344-3.523 8.707-3.816 11.959-.652l104.36 101.54c3.383 3.29 3.411 8.947.058 12.608l-72.742 79.41z"/>
            <path d="M150.573 590.01c-3.437 3.753-8.988 4.044-12.364.649L34.071 485.967c-3.244-3.261-3.09-8.851.337-12.461l72.53-76.402c3.344-3.523 8.707-3.816 11.959-.652l104.36 101.54c3.383 3.29 3.411 8.947.058 12.608l-72.742 79.41z"/>
            <path d="M150.573 590.01c-3.437 3.753-8.988 4.044-12.364.649L34.071 485.967c-3.244-3.261-3.09-8.851.337-12.461l72.53-76.402c3.344-3.523 8.707-3.816 11.959-.652l104.36 101.54c3.383 3.29 3.411 8.947.058 12.608l-72.742 79.41z"/>
            <path d="M150.573 590.01c-3.437 3.753-8.988 4.044-12.364.649L34.071 485.967c-3.244-3.261-3.09-8.851.337-12.461l72.53-76.402c3.344-3.523 8.707-3.816 11.959-.652l104.36 101.54c3.383 3.29 3.411 8.947.058 12.608l-72.742 79.41z"/>
            <path d="M150.573 590.01c-3.437 3.753-8.988 4.044-12.364.649L34.071 485.967c-3.244-3.261-3.09-8.851.337-12.461l72.53-76.402c3.344-3.523 8.707-3.816 11.959-.652l104.36 101.54c3.383 3.29 3.411 8.947.058 12.608l-72.742 79.41z"/>
            <path d="M150.573 590.01c-3.437 3.753-8.988 4.044-12.364.649L34.071 485.967c-3.244-3.261-3.09-8.851.337-12.461l72.53-76.402c3.344-3.523 8.707-3.816 11.959-.652l104.36 101.54c3.383 3.29 3.411 8.947.058 12.608l-72.742 79.41z"/>
        </g>
        <g transform="rotate(-6 3854.512 -33.591)">
            <mask id="pr4doayk4c" fill="#fff">
                <use xlink:href="#wctg56kd0b"/>
            </mask>
            <path d="m188.994 128.936-80.625 71.393c-4.241 3.755-10.399 3.432-13.744-.72L1.963 84.575c-3.212-3.99-2.396-10.138 1.816-13.735l80.096-68.39c4.112-3.51 10.059-3.212 13.294.668l93.22 111.873c3.363 4.037 2.744 10.282-1.395 13.946" fill="#C9C7C7" mask="url(#pr4doayk4c)"/>
        </g>
        <path d="m224 511.268-72.743 79.428c-3.827 4.179-9.985 4.501-13.743.721L33.379 486.7c-3.612-3.631-3.44-9.831.374-13.849l72.529-76.385c3.723-3.921 9.67-4.246 13.29-.726l104.362 101.514c3.766 3.664 3.8 9.94.066 14.015" fill="#FFF"/>
        <g transform="rotate(-6 3854.182 -26.994)">
            <mask id="evcl752lef" fill="#fff">
                <use xlink:href="#8ydy4nk9yd"/>
            </mask>
            <path d="M83.882 2.45 3.781 70.837c-4.213 3.597-5.031 9.745-1.818 13.735L94.61 199.603c3.346 4.154 9.502 4.476 13.745.72l80.632-71.391c4.138-3.664 4.76-9.907 1.396-13.945L97.175 3.118C95.452 1.051 92.961 0 90.385 0c-2.258 0-4.581.81-6.503 2.45" fill="url(#0usmbpmz5e)" mask="url(#evcl752lef)"/>
        </g>
        <g fill="#F80010">
            <path d="M126.517 457.469c-4.562 2.42-7.202 5.666-8.703 8.888-2.868 6.159-1.573 12.228-1.573 12.23 0 0-5.956-1.099-11.856 2.09-3.093 1.67-6.174 4.52-8.382 9.328-6.441 14.032 2.862 20.505 3.721 21.243.345.296 3.077 3.144 8.206 4.067 1.68.386 3.498.53 5.354.186 4.861-.496 15.058-3.566 18.281-3.96 3.225-.394 15.065-2.463 17.52-.485-2.02-2.446-.534-14.72-.294-18.046.24-3.323 2.75-13.876 3.017-18.857.25-1.904.031-3.752-.412-5.448-1.11-5.184-3.963-7.86-4.263-8.201-.745-.847-7.36-10.068-20.616-3.035M49.493 484.19c-.632.335-1 .783-1.21 1.228-.405.849-.237 1.684-.237 1.684s-.815-.15-1.628.288c-.427.229-.852.62-1.16 1.28-.898 1.919.366 2.801.482 2.903.048.04.417.427 1.115.552.23.052.476.072.731.025.663-.069 2.06-.486 2.5-.54.44-.054 2.058-.336 2.389-.067-.27-.332-.04-2.008 0-2.463.04-.454.407-1.903.454-2.587a1.944 1.944 0 0 0-.043-.75c-.14-.715-.526-1.085-.567-1.131-.1-.117-.99-1.394-2.826-.421M42.875 479.943l-1.54-1.016a174.49 174.49 0 0 1-3.376-2.276l-.032.035c.802 1.16 1.55 2.27 2.297 3.413l1.019 1.567 1.632-1.723m1.034.678c-.792.836-1.188 1.253-1.979 2.09l2.048 3.13-.706.746c-2.638-4.164-3.953-6.242-6.58-10.392l.778-.822 10.26 6.502c-.29.308-.436.463-.728.77l-3.093-2.024M215.788 503.975l1.597 1.02c1.162.748 2.296 1.5 3.483 2.308l.032-.036a191.854 191.854 0 0 1-2.428-3.457l-1.085-1.576-1.599 1.741m-1.283-5.956c.286-.312.43-.467.714-.778l6.965 10.506c-.304.333-.457.5-.763.832l-10.568-6.586c.277-.301.416-.452.69-.753l3.182 2.048 1.94-2.111-2.16-3.158M212.844 495.49c-.292.662-.71 1.056-1.134 1.287-.808.44-1.633.289-1.633.289s.193.841-.191 1.697c-.202.447-.561.899-1.19 1.235-1.826.98-2.756-.306-2.86-.425-.043-.047-.44-.42-.601-1.14a1.968 1.968 0 0 1-.064-.755c.03-.689.363-2.146.392-2.603.028-.457.216-2.139-.064-2.473.34.27 1.961-.013 2.403-.067.442-.054 1.835-.474 2.5-.543a1.83 1.83 0 0 1 .737.027c.706.125 1.089.514 1.137.555.12.1 1.417.986.568 2.915"/>
        </g>
        <g>
            <path d="m106.783 3.602 20.83 187.842a8.4 8.4 0 0 1-7.956 9.317l-108.55 5.086a8.4 8.4 0 0 1-8.742-9.323L18.833 49.047l87.95-45.445z" fill="#000" opacity=".109" filter="url(#9luy6qru0g)" transform="rotate(37 -233.72 356.137)"/>
            <g transform="rotate(37 -236.32 357.381)">
                <mask id="ezdwy62nli" fill="#fff">
                    <use xlink:href="#quacrjikhh"/>
                </mask>
                <path d="M109.748 190.324 8.629 199c-4.928.422-8.778-3.965-8.625-9.783L4.197 30.719c.143-5.405 4.088-10.53 8.836-11.462L110.174.176c5.367-1.055 9.742 2.747 9.742 8.51v169.459c0 6.237-4.567 11.699-10.168 12.179" fill="#C9C7C7" mask="url(#ezdwy62nli)"/>
            </g>
            <g transform="rotate(37 -233.72 356.137)">
                <mask id="ljz6ezp07k" fill="#fff">
                    <use xlink:href="#ayccjj0llj"/>
                </mask>
                <path d="m109.52 190.028-100.91 8.76c-4.92.427-8.76-3.949-8.606-9.759L4.236 30.763c.146-5.398 4.083-10.517 8.822-11.452L110.008.176c5.355-1.056 9.72 2.735 9.718 8.49l-.056 169.193c-.003 6.228-4.562 11.684-10.15 12.17" fill="#FFF" mask="url(#ljz6ezp07k)"/>
            </g>
            <g transform="rotate(37 -235.413 356.993)">
                <mask id="7isc2et94n" fill="#fff">
                    <use xlink:href="#qe024px9ll"/>
                </mask>
                <path d="m110.119.175-97.076 19.1c-4.746.935-8.689 6.058-8.833 11.46L.004 189.154c-.152 5.815 3.694 10.197 8.62 9.772l101.049-8.704c5.597-.482 10.161-5.942 10.161-12.175l.02-169.37c0-5.112-3.443-8.678-7.967-8.678-.573 0-1.165.056-1.768.175" fill="url(#owlupm6vhm)" mask="url(#7isc2et94n)"/>
            </g>
            <g fill="#000">
                <path d="M177.186 348.947c-5.71 7.467-16.375 10.125-23.742 5.931-3.736-2.127-5.876-5.609-6.31-9.474-3.432 4.151-6.289 10.626-2.528 17.653-3.387-3.376-6.91-5.636-8.988-6.836-.933-.538-1.572-.86-1.78-.978-.66-.383-5.321-3.533-12.287-5.517 8.794.267 14.603-4.468 17.724-8.764-4.287 1.166-8.78.851-12.402-1.209-7.033-4.004-8.103-13.033-2.487-20.176 5.593-7.115 15.793-9.778 22.873-5.93.354.193.684.406.997.622.042.033.096.051.137.085.531-2.063 1.522-4.11 3.03-6.042 5.558-7.116 15.85-9.807 23.078-6.004.089.046.18.105.262.16.095.039.198.082.286.128 7.305 3.844 8.753 12.856 3.151 20.132-1.521 1.976-3.391 3.593-5.475 4.853.056.018.098.053.153.072.376.159.754.33 1.122.53 7.413 4.029 8.87 13.328 3.186 20.764M153.894 254.842a1.908 1.908 0 0 0-.16-.068c-.007-.003-.013-.008-.02-.01.298-.181.567-.41.787-.688.812-1.026.627-2.279-.415-2.797l-.04-.018-.037-.021c-1.04-.519-2.538-.11-3.349.913-.22.277-.364.567-.441.86-.007-.006-.014-.008-.02-.012a1.63 1.63 0 0 0-.146-.084c-1.037-.52-2.534-.11-3.346.911-.814 1.024-.636 2.277.4 2.8.265.134.56.206.867.224a2.86 2.86 0 0 0 .934-.113 3.146 3.146 0 0 1-2.557 1.283c.158.037.306.079.446.121l.117.037.297.103.088.034c.111.043.213.087.304.127l.081.037c.06.028.116.054.164.078l.09.046.073.038c.061.032.108.06.127.069l.132.062.072.036.092.046c.048.024.102.054.158.085.026.014.05.026.077.042.085.049.178.103.275.166l.075.05c.08.053.162.109.245.17l.091.069c.11.083.22.172.331.27-.542-.925-.134-1.816.356-2.397.063.523.37.986.902 1.254 1.043.526 2.55.117 3.365-.913.815-1.029.629-2.287-.415-2.81M158.166 411.451a1.784 1.784 0 0 1-.161-.11c-.006-.006-.016-.01-.022-.015-.082.345-.24.684-.481 1.004-.89 1.174-2.536 1.564-3.676.87-.015-.009-.029-.02-.041-.03-.016-.006-.032-.014-.046-.023-1.138-.692-1.34-2.203-.452-3.374.241-.318.534-.573.86-.77l-.023-.014a1.968 1.968 0 0 1-.173-.09c-1.139-.69-1.339-2.195-.452-3.362.886-1.167 2.524-1.559 3.663-.874a2.055 2.055 0 0 1 .993 1.54c.534-.658.973-1.69.376-2.817.12.123.242.235.362.34l.1.087c.093.077.182.148.269.215l.083.065a6.8 6.8 0 0 0 .302.212l.085.055c.061.04.122.078.174.11l.1.06.08.047c.07.04.125.07.145.083.02.012.073.045.14.089l.08.047c.029.02.064.04.099.062.053.03.115.066.18.101.03.017.057.033.09.05.1.054.212.111.335.17.03.015.066.03.098.045.102.046.211.093.326.14l.128.052c.155.06.319.118.493.172-1.402-.071-2.313.678-2.799 1.367.678-.175 1.395-.106 1.98.246 1.147.69 1.358 2.201.47 3.376-.89 1.175-2.54 1.567-3.685.874M159.641 245.788l.906-1.661a171.513 171.513 0 0 1 2.034-3.646l-.038-.019a239.13 239.13 0 0 1-3.27 3.038c-.6.546-.903.82-1.504 1.364l1.872.924m-.608 1.114c-.909-.448-1.363-.674-2.269-1.12l-3.001 2.735-.804-.4 9.981-8.889.893.436c-2.298 4.378-3.453 6.574-5.77 10.99l-.838-.416 1.808-3.336M147.553 419.33l-.995 1.955a224.164 224.164 0 0 1-2.264 4.296.622.622 0 0 0 .042.025c1.227-1.2 2.402-2.329 3.612-3.463l1.65-1.555-2.045-1.259m6.459-2.884.916.561-11.024 10.095-.973-.606 6.41-12.903c.351.216.528.323.88.538l-1.998 3.893c.992.608 1.487.913 2.481 1.524l3.308-3.102"/>
            </g>
        </g>
        <g>
            <path d="m.9 58.83 4.958 115.382a9.6 9.6 0 0 0 12.46 8.75l112.186-35.122a9.6 9.6 0 0 0 6.51-11.212l-20.13-92.074L.901 58.83z" fill="#573C3C" opacity=".187" filter="url(#at3dwn1jpo)" transform="translate(43.604 131.24)"/>
            <path d="M167.062 267.236 58.998 300.237c-5.52 1.686-10.11-.916-10.262-5.768L44.95 173.004c-.12-3.807 3.696-8.15 8.527-9.727l94.382-30.823c4.978-1.627 9.478.053 10.046 3.78l18.185 119.168c.73 4.772-3.315 10.09-9.027 11.834" fill="#C9C7C7"/>
            <g transform="translate(43.604 131.24)">
                <mask id="6ospymq7fq" fill="#fff">
                    <use xlink:href="#ioq7jkfssp"/>
                </mask>
                <path d="M121.728 135.115 13.85 168.083c-5.51 1.683-10.088-.91-10.232-5.753L.002 41.122c-.113-3.8 3.701-8.134 8.524-9.71L102.766.619c4.97-1.624 9.459.051 10.02 3.77l17.968 118.916c.718 4.762-3.324 10.067-9.026 11.81" fill="#FFF" mask="url(#6ospymq7fq)"/>
            </g>
            <g transform="translate(44.504 131.615)">
                <mask id="itgihybdrt" fill="#fff">
                    <use xlink:href="#43fm90yu2r"/>
                </mask>
                <path d="M102.861.62 8.531 31.433C3.7 33.01-.115 37.348.002 41.154l3.73 121.373c.15 4.85 4.737 7.449 10.253 5.763l108-32.989c5.709-1.743 9.75-7.057 9.027-11.826L112.9 4.397c-.42-2.762-3-4.397-6.333-4.397-1.163 0-2.418.2-3.706.62" fill="url(#novxlyx67s)" mask="url(#itgihybdrt)"/>
            </g>
            <g fill="#F80010">
                <path d="M129.885 203.391c-11.227 10.986-21.91 35.173-21.91 35.173s-14.266-16.314-26.654-19.79c11.28-10.863 21.856-33.707 21.856-33.707s14.02 15.027 26.708 18.324M57.313 178.93c-2.011 1.88-4.026 5.904-4.026 5.904s-2.276-2.635-4.377-3.18c2.012-1.876 4.022-5.86 4.022-5.86s2.27 2.597 4.38 3.137M167.612 243.445c-2.546-.715-5.53-3.877-5.53-3.877s-1.875 4.665-4.01 6.825c2.535.72 5.532 3.934 5.532 3.934s1.876-4.718 4.008-6.882M53.734 170.767l-.382-1.25a78.46 78.46 0 0 1-.802-2.762l-.042.014c-.183 1.096-.367 2.14-.57 3.208-.114.586-.17.88-.286 1.467l2.082-.677m.258.84-2.528.822c-.226 1.175-.34 1.765-.565 2.946l-.9.293c.81-3.9 1.212-5.831 2.01-9.664l.989-.323c1.074 3.223 1.614 4.848 2.71 8.132l-.936.304-.78-2.51M163.176 256.48l.63 1.566c.454 1.147.883 2.287 1.326 3.5l.05-.015c.074-1.372.16-2.67.266-3.99l.14-1.803-2.412.741m2.798-5.531 1.076-.33c-.45 4.711-.678 7.09-1.139 11.895l-1.159.356-4.264-10.23c.414-.129.62-.193 1.034-.32l1.237 3.113 2.924-.899c.118-1.438.176-2.155.29-3.585"/>
            </g>
        </g>
        <g>
            <path d="M20.343 33.928 66.52 125.13a25.2 25.2 0 0 0 28.326 13.13l98.616-23.506L20.343 33.928z" fill="#000" opacity=".13" filter="url(#b3eywxvymu)" transform="translate(59 30)"/>
            <g transform="translate(61.094 30.855)">
                <mask id="0nkbt8bkpw" fill="#fff">
                    <use xlink:href="#mgwpo5vttv"/>
                </mask>
                <path d="m189.35 115.241-92.205 14.112c-5.16.79-11.924-2.058-15.054-6.343L1.162 12.2c-2.621-3.588-.653-6.717 4.35-7.005L95.498.018c4.37-.251 10.083 2.212 12.798 5.519l83.282 101.407c3.199 3.893 2.221 7.616-2.228 8.297" fill="#C9C7C7" mask="url(#0nkbt8bkpw)"/>
            </g>
            <g transform="translate(59 30)">
                <mask id="4kxouou5iy" fill="#fff">
                    <use xlink:href="#wwnhq8oawx"/>
                </mask>
                <path d="m189.338 115.175-92.37 14.047c-5.17.786-11.936-2.063-15.06-6.345L1.156 12.134C-1.46 8.548.52 5.424 5.53 5.139L95.656.017c4.378-.248 10.092 2.217 12.802 5.52l83.134 101.35c3.192 3.892 2.204 7.61-2.254 8.288" fill="#FFF" mask="url(#4kxouou5iy)"/>
            </g>
            <g transform="translate(60.39 30.553)">
                <mask id="zr0fp0k5jB" fill="#fff">
                    <use xlink:href="#zksasxwziz"/>
                </mask>
                <path d="M95.548.018 5.518 5.175c-5.005.288-6.977 3.414-4.359 7L82.03 122.96c3.127 4.283 9.891 7.133 15.054 6.344l92.26-14.089c4.451-.68 5.433-4.4 2.236-8.295L108.35 5.537C105.762 2.387 100.452 0 96.173 0c-.21 0-.42.006-.625.018" fill="url(#62e785nfiA)" mask="url(#zr0fp0k5jB)"/>
            </g>
            <g fill="#000">
                <path d="M184.443 88.587c-.343-.383-5.178-5.568-11.547-7.783-4.557-1.586-14.381-4.577-17.397-5.74-3.02-1.165-14.263-5.149-16.07-7.132 1.31 2.026-2.778 7.376-3.75 8.917-.98 1.547-5.409 5.946-7.194 8.195-2.525 3.177.92 8.732 1.187 9.14.51.775 4.67 8.633 19.031 10.713 7.453 1.078 11.005-.834 12.695-2.886 3.06 3.514 5.47 8.622.726 12.361 5.432-1.939 10.85-2.296 11.543-2.378.694-.083 5.656-.957 12.744-.526-9.06-2.064-14.284-6.81-16.724-10.37 4.294 1.37 9.867 2.236 14.352-.14 8.424-4.463 1.055-11.643.404-12.371M80.78 50.788c-.049-.058-.746-.85-1.762-1.202-.724-.252-2.29-.729-2.765-.912-.475-.183-2.249-.81-2.515-1.116.185.31-.542 1.105-.717 1.332-.175.227-.929.862-1.235 1.185-.43.451.05 1.263.089 1.322.07.113.632 1.244 2.85 1.603 1.16.187 1.754-.068 2.056-.352.432.515.732 1.248-.08 1.745.892-.24 1.761-.263 1.874-.27.113-.008.926-.105 2.064-.007-1.426-.34-2.182-1.04-2.513-1.56.67.215 1.558.365 2.336.044 1.483-.613.411-1.702.319-1.812M71.767 43.07l-1.277-1.25a230.472 230.472 0 0 1-2.776-2.76c-.018.002-.026.002-.044.002.48.976.923 1.904 1.357 2.849l.586 1.294c.864-.054 1.294-.08 2.154-.135m.861.84c-1.045.067-1.567.1-2.615.165l1.195 2.606c-.373.024-.56.037-.934.06l-3.718-8.511c.41-.024.615-.036 1.025-.062l8.581 8.19-.962.063-2.572-2.511M241.226 137.027l1.443 1.345a260.44 260.44 0 0 1 3.145 2.992.198.198 0 0 1 .038-.006 182.937 182.937 0 0 1-1.876-3.177l-.83-1.432-1.92.278m-.273-4.09c.343-.047.515-.072.857-.12l5.264 9.423-.916.137-9.594-8.817.833-.119 2.866 2.685 2.332-.337-1.642-2.851M239.02 127.83c.045.063.643.924.354 1.44-.207.369-.752 1.104-.862 1.363-.11.26-.603 1.177-.37 1.512-.305-.324-2.04-.93-2.508-1.11-.47-.179-1.988-.63-2.696-.874-.995-.34-1.784-1.181-1.84-1.244-.107-.116-1.29-1.265-.054-2.006.647-.386 1.48-.263 2.127-.056-.4-.554-1.217-1.282-2.571-1.59 1.049.058 1.765-.083 1.864-.096.1-.013.88-.074 1.634-.373-.633.572-.221 1.355.269 1.896.216-.323.7-.626 1.777-.474 2.055.291 2.789 1.493 2.875 1.612"/>
            </g>
        </g>
        <path d="M0 0h275v623H0z"/>
    </g>
</svg>
