<svg width="245" height="259" viewBox="0 0 245 259" xmlns="http://www.w3.org/2000/svg" xmlns:xlink="http://www.w3.org/1999/xlink">
    <defs>
        <path id="4ufqfp01zb" d="M0 0h132.247v170.077H0z"/>
        <path d="M103.97.625 8.622 31.709C3.74 33.3-.115 37.676.002 41.516l3.772 122.439c.15 4.892 4.787 7.514 10.363 5.813L123.3 136.49c5.771-1.758 9.857-7.119 9.125-11.93L114.117 4.436C113.692 1.65 111.086 0 107.717 0c-1.176 0-2.445.201-3.747.625" id="ov42727bqd"/>
        <linearGradient x1="17.994%" y1="26.058%" x2="81.215%" y2="78.572%" id="kl50te5boe">
            <stop stop-color="#FDFDFD" offset="0%"/>
            <stop stop-color="#DFDFDF" offset="100%"/>
        </linearGradient>
        <filter x="-21%" y="-20.4%" width="140.9%" height="138.7%" filterUnits="objectBoundingBox" id="x18n4empga">
            <feGaussianBlur stdDeviation="9.72" in="SourceGraphic"/>
        </filter>
    </defs>
    <g fill="none" fill-rule="evenodd">
        <path d="M0 0h245v259H0z"/>
        <path d="m1.102 59.35 5.051 117.41a8.64 8.64 0 0 0 11.21 7.874l115.185-36.015a8.64 8.64 0 0 0 5.862-10.094l-20.476-93.537L1.102 59.351z" fill="#573C3C" opacity=".187" filter="url(#x18n4empga)" transform="rotate(-15 181.649 -81)"/>
        <path d="M183.199 144.473 86.309 204.9c-4.95 3.086-10.112 1.752-11.526-2.937L39.37 84.598c-1.11-3.679 1.481-8.908 5.787-11.71l84.1-54.725c4.436-2.887 9.268-2.428 10.796 1.056l48.869 111.36c1.958 4.46-.603 10.7-5.724 13.894" fill="#C9C7C7"/>
        <g transform="rotate(-15 181.649 -81)">
            <mask id="h24omoxqic" fill="#fff">
                <use xlink:href="#4ufqfp01zb"/>
            </mask>
            <path d="M123.04 136.302 14 169.56c-5.57 1.698-10.198-.918-10.343-5.804L.002 41.484c-.114-3.834 3.741-8.206 8.616-9.796L103.874.624c5.024-1.637 9.56.052 10.129 3.804l18.16 119.96c.726 4.803-3.36 10.156-9.123 11.914" fill="#FFF" mask="url(#h24omoxqic)"/>
        </g>
        <g transform="rotate(-15 182.629 -84.647)">
            <mask id="be9il2mxpf" fill="#fff">
                <use xlink:href="#ov42727bqd"/>
            </mask>
            <path d="M103.97.625 8.622 31.709C3.74 33.3-.115 37.676.002 41.516l3.772 122.439c.15 4.892 4.787 7.514 10.363 5.813L123.3 136.49c5.771-1.758 9.857-7.119 9.125-11.93L114.117 4.436C113.692 1.65 111.086 0 107.717 0c-1.176 0-2.445.201-3.747.625" fill="url(#kl50te5boe)" mask="url(#be9il2mxpf)"/>
        </g>
        <g fill="#F80010">
            <path d="M130.232 91.987c-8.093 13.641-12.208 40.005-12.208 40.005s-18.188-12.165-31.19-12.31c8.177-13.537 12.538-38.563 12.538-38.563s17.611 10.975 30.86 10.868M52.99 87.138c-1.472 2.357-2.389 6.806-2.389 6.806s-2.91-1.973-5.104-1.954c1.475-2.354 2.397-6.763 2.397-6.763s2.895 1.937 5.096 1.911M177.524 121.146c-2.673-.03-6.411-2.33-6.411-2.33s-.613 5.035-2.134 7.698c2.663.039 6.429 2.387 6.429 2.387s.6-5.089 2.116-7.755M47.365 80.12l-.7-1.12a79.029 79.029 0 0 1-1.504-2.48 1.71 1.71 0 0 0-.038.025c.108 1.116.201 2.18.282 3.275l.104 1.504a1416.2 1416.2 0 0 0 1.856-1.204m.471.75-2.254 1.463.218 3.018c-.321.21-.482.312-.803.521-.227-4.012-.338-6-.56-9.942l.881-.573c1.89 2.859 2.842 4.301 4.769 7.214l-.834.541-1.417-2.242M176.596 135.007l1.024 1.362c.743.999 1.46 1.998 2.209 3.063l.044-.026c-.286-1.357-.54-2.644-.781-3.958l-.334-1.794c-.864.542-1.297.812-2.162 1.353m1.288-6.121.964-.604 1.994 11.89-1.039.649-6.834-8.853c.37-.234.556-.35.926-.582l2.021 2.71c1.047-.657 1.572-.984 2.62-1.641-.26-1.432-.392-2.146-.652-3.57"/>
        </g>
    </g>
</svg>
