<svg width="222" height="236" viewBox="0 0 222 236" xmlns="http://www.w3.org/2000/svg" xmlns:xlink="http://www.w3.org/1999/xlink">
    <defs>
        <path id="qylolphqwb" d="M0 0h107.56v157.957H0z"/>
        <path id="9wudspt5cd" d="M0 0h107.39v157.79H0z"/>
        <path d="M98.772.14 11.699 15.297c-4.257.741-7.794 4.807-7.923 9.094L.004 150.122c-.137 4.615 3.313 8.093 7.732 7.756l90.636-6.909c5.02-.382 9.114-4.715 9.114-9.663l.018-134.419c0-4.057-3.088-6.887-7.146-6.887-.514 0-1.045.045-1.586.14" id="3oyez6tm8f"/>
        <linearGradient x1="23.212%" y1="21.575%" x2="81.427%" y2="83.237%" id="waqxqb2hmg">
            <stop stop-color="#FDFDFD" offset="0%"/>
            <stop stop-color="#DFDFDF" offset="100%"/>
        </linearGradient>
        <filter x="-11.6%" y="-8.9%" width="123.3%" height="117.5%" filterUnits="objectBoundingBox" id="61x07r5g7a">
            <feGaussianBlur stdDeviation="4.751" in="SourceGraphic"/>
        </filter>
    </defs>
    <g fill="none" fill-rule="evenodd">
        <path d="M0 0h222v236H0z"/>
        <path d="m95.84 2.391 18.747 149.085a6.652 6.652 0 0 1-6.325 7.476l-99.594 4.115a6.652 6.652 0 0 1-6.874-7.482L16.622 38.486 95.84 2.391z" fill="#000" opacity=".28" filter="url(#61x07r5g7a)" transform="rotate(32 23.24 193.48)"/>
        <g transform="rotate(32 20.85 194.948)">
            <mask id="15zyihk9wc" fill="#fff">
                <use xlink:href="#qylolphqwb"/>
            </mask>
            <path d="M98.439 151.05 7.74 157.935c-4.42.335-7.874-3.146-7.736-7.764L3.764 24.38c.129-4.29 3.667-8.357 7.926-9.097L98.821.139c4.815-.836 8.739 2.18 8.739 6.754v134.49c0 4.95-4.097 9.285-9.121 9.667" fill="#C9C7C7" mask="url(#15zyihk9wc)"/>
        </g>
        <g transform="rotate(32 23.24 193.48)">
            <mask id="gfq9zsr9fe" fill="#fff">
                <use xlink:href="#9wudspt5cd"/>
            </mask>
            <path d="m98.234 150.815-90.511 6.952c-4.414.34-7.858-3.134-7.72-7.745L3.8 24.415c.13-4.284 3.662-8.347 7.913-9.09L98.673.14c4.803-.838 8.718 2.17 8.716 6.738l-.05 134.279c-.003 4.942-4.092 9.273-9.105 9.658" fill="#FFF" mask="url(#gfq9zsr9fe)"/>
        </g>
        <g transform="rotate(32 21.685 194.482)">
            <mask id="4xbsdksqdh" fill="#fff">
                <use xlink:href="#3oyez6tm8f"/>
            </mask>
            <path d="M98.772.14 11.699 15.297c-4.257.741-7.794 4.807-7.923 9.094L.004 150.122c-.137 4.615 3.313 8.093 7.732 7.756l90.636-6.909c5.02-.382 9.114-4.715 9.114-9.663l.018-134.419c0-4.057-3.088-6.887-7.146-6.887-.514 0-1.045.045-1.586.14" fill="url(#waqxqb2hmg)" mask="url(#4xbsdksqdh)"/>
        </g>
        <g fill="#000">
            <path d="M131.246 129.313c-4.004 6.295-12.858 8.756-19.71 5.489-3.474-1.657-5.74-4.47-6.585-7.642-2.448 3.506-4.116 8.912-.023 14.603-3.327-2.694-6.634-4.466-8.569-5.401-.869-.42-1.458-.669-1.65-.76-.616-.299-5.011-2.775-11.248-4.231 7.601-.005 12.023-4.052 14.185-7.669-3.547 1.07-7.452.924-10.82-.68-6.54-3.119-8.562-10.528-4.6-16.553 3.946-6.002 12.4-8.456 18.961-5.466.329.15.638.316.935.487.04.026.088.04.127.066.207-1.713.81-3.424 1.872-5.053 3.916-6.002 12.444-8.48 19.129-5.532.082.035.167.082.244.125.087.03.181.062.263.099 6.755 2.979 9.1 10.364 5.166 16.5-1.07 1.665-2.481 3.045-4.121 4.136.05.013.091.04.14.055.343.12.69.252 1.03.408 6.871 3.129 9.26 10.75 5.274 17.02M99.73 52.404a1.9 1.9 0 0 0-.146-.053c-.006-.001-.013-.005-.02-.007.236-.157.439-.352.594-.587.575-.865.262-1.892-.697-2.293l-.038-.013-.034-.017c-.958-.4-2.197-.026-2.77.837a1.664 1.664 0 0 0-.276.72c-.006-.005-.013-.006-.018-.01a1.644 1.644 0 0 0-.136-.065c-.956-.402-2.194-.027-2.768.836-.576.864-.27 1.89.685 2.296.245.103.507.155.773.161.266.006.536-.035.79-.116-.31.507-.947 1.083-2.044 1.121a6.6 6.6 0 0 1 .4.09c.036.008.07.018.104.027.094.025.184.051.268.077l.08.025c.101.033.195.067.277.097l.075.029c.054.021.106.041.15.06l.084.035.067.03.117.053.122.048.066.028.085.036c.044.018.094.041.146.066l.072.032c.079.038.165.08.256.13l.071.04c.075.04.153.085.232.133.028.018.058.035.086.054.106.066.211.136.319.215-.58-.749-.338-1.493.013-1.984.118.429.439.802.93 1.01.961.407 2.208.032 2.784-.837.576-.869.262-1.9-.7-2.304M122.496 181.274a1.807 1.807 0 0 1-.152-.087c-.006-.005-.014-.007-.02-.012-.03.287-.124.57-.292.84-.622.99-1.992 1.353-3.058.81a.734.734 0 0 1-.039-.023.37.37 0 0 1-.042-.019c-1.064-.541-1.422-1.78-.8-2.767a2.19 2.19 0 0 1 .647-.657c-.008-.002-.015-.007-.022-.01a1.977 1.977 0 0 1-.16-.07c-1.064-.539-1.42-1.773-.799-2.757.62-.984 1.982-1.348 3.046-.813.272.137.498.32.673.532.175.212.3.456.369.712.38-.557.631-1.417-.02-2.33.119.098.237.187.354.27l.097.07c.088.06.174.117.256.17l.08.05c.101.063.198.12.286.168l.08.043c.057.032.114.061.163.086l.094.048c.026.013.052.024.074.036l.135.064.132.07.073.037.093.048.168.08.082.038c.094.042.197.086.31.13.028.013.06.024.09.036.093.036.193.07.298.107l.116.04c.14.044.289.088.445.129-1.215-.024-1.907.617-2.242 1.197a2.397 2.397 0 0 1 1.735.152c1.07.539 1.436 1.778.814 2.769-.621.99-1.994 1.355-3.064.813M103.572 44.8l.577-1.39c.418-1.017.844-2.012 1.306-3.055l-.035-.014a170.08 170.08 0 0 1-2.444 2.585c-.45.465-.677.697-1.128 1.161l1.724.714m-.388.933-2.089-.865-2.25 2.329-.74-.309c3.006-3.035 4.508-4.55 7.506-7.574.33.134.493.2.822.336l-3.627 9.197-.771-.321 1.15-2.793M114.323 188.032l-.618 1.636a159.097 159.097 0 0 1-1.424 3.596l.039.02c.91-1.02 1.783-1.98 2.686-2.944l1.23-1.323-1.913-.985m5.207-2.54.857.44-8.257 8.594-.911-.474 3.943-10.79.824.42-1.245 3.257 2.32 1.192 2.47-2.638"/>
        </g>
    </g>
</svg>
