<svg width="185" height="137" viewBox="0 0 185 137" xmlns="http://www.w3.org/2000/svg" xmlns:xlink="http://www.w3.org/1999/xlink">
    <defs>
        <path id="3e0ern63ab" d="M0 0h174.115v117.819H0z"/>
        <path id="uxjh3njjvd" d="M0 0h174.12v117.698H0z"/>
        <path d="M85.995.016 4.967 4.708c-4.505.263-6.28 3.107-3.924 6.37l72.784 100.804c2.815 3.897 8.903 6.49 13.55 5.772l83.035-12.82c4.006-.619 4.89-4.003 2.013-7.547L97.515 5.038C95.189 2.172 90.409 0 86.558 0c-.189 0-.377.005-.562.016" id="nfseplg2of"/>
        <linearGradient x1="-4.325%" y1="35.393%" x2="105.162%" y2="65.141%" id="f5pp49995g">
            <stop stop-color="#FDFDFD" offset="0%"/>
            <stop stop-color="#DFDFDF" offset="100%"/>
        </linearGradient>
        <filter x="-6.2%" y="-9.8%" width="112.5%" height="116%" filterUnits="objectBoundingBox" id="7pbpaome6a">
            <feGaussianBlur stdDeviation="3.24" in="SourceGraphic"/>
        </filter>
    </defs>
    <g fill="none" fill-rule="evenodd">
        <path d="M0 1h183v136H0z"/>
        <path d="m19.31 30.87 41.573 83.015a22.68 22.68 0 0 0 25.592 11.893l88.644-21.362L19.31 30.87z" fill="#000" opacity=".13" filter="url(#7pbpaome6a)"/>
        <g transform="translate(2.885 .778)">
            <mask id="sjc8gxadac" fill="#fff">
                <use xlink:href="#3e0ern63ab"/>
            </mask>
            <path d="m170.418 104.858-82.986 12.84c-4.644.72-10.731-1.872-13.549-5.77L1.046 11.1C-1.314 7.836.458 4.989 4.96 4.727L85.95.016c3.933-.228 9.075 2.013 11.518 5.022l74.956 92.27c2.879 3.543 1.999 6.93-2.006 7.55" fill="#C9C7C7" mask="url(#sjc8gxadac)"/>
        </g>
        <g transform="translate(1)">
            <mask id="wji17ihxhe" fill="#fff">
                <use xlink:href="#uxjh3njjvd"/>
            </mask>
            <path d="m170.408 104.798-83.136 12.781c-4.653.716-10.742-1.876-13.553-5.773L1.04 11.04C-1.313 7.777.469 4.935 4.978 4.676L86.092.016c3.94-.226 9.084 2.016 11.523 5.023l74.821 92.218c2.874 3.541 1.984 6.925-2.028 7.54" fill="#FFF" mask="url(#wji17ihxhe)"/>
        </g>
        <g transform="translate(2.252 .504)">
            <mask id="u141b819bh" fill="#fff">
                <use xlink:href="#nfseplg2of"/>
            </mask>
            <path d="M85.995.016 4.967 4.708c-4.505.263-6.28 3.107-3.924 6.37l72.784 100.804c2.815 3.897 8.903 6.49 13.55 5.772l83.035-12.82c4.006-.619 4.89-4.003 2.013-7.547L97.515 5.038C95.189 2.172 90.409 0 86.558 0c-.189 0-.377.005-.562.016" fill="url(#f5pp49995g)" mask="url(#u141b819bh)"/>
        </g>
        <g fill="#000">
            <path d="M113.9 53.309c-.307-.349-4.659-5.067-10.391-7.083-4.102-1.443-12.944-4.164-15.658-5.223-2.718-1.06-12.837-4.684-14.463-6.489 1.179 1.844-2.5 6.712-3.376 8.114-.881 1.408-4.867 5.41-6.474 7.457-2.273 2.89.827 7.945 1.068 8.315.459.706 4.204 7.856 17.129 9.75 6.707.98 9.904-.76 11.425-2.627 2.755 3.198 4.924 7.845.653 11.248 4.889-1.764 9.766-2.09 10.39-2.164.624-.076 5.09-.87 11.47-.479-8.154-1.878-12.856-6.197-15.053-9.436 3.865 1.246 8.88 2.035 12.917-.127 7.583-4.06.95-10.594.364-11.256M20.603 18.915c-.044-.052-.672-.773-1.586-1.093-.652-.23-2.06-.664-2.489-.83-.428-.167-2.024-.738-2.264-1.016.167.282-.487 1.005-.645 1.212-.157.206-.836.784-1.112 1.078-.386.41.046 1.15.08 1.203.064.103.57 1.132 2.566 1.458 1.044.17 1.578-.06 1.85-.32.389.469.66 1.136-.072 1.589.803-.22 1.585-.24 1.687-.246.102-.008.834-.096 1.857-.007-1.283-.309-1.963-.947-2.261-1.42.603.197 1.402.333 2.103.04 1.334-.557.37-1.547.286-1.648M12.49 11.893l-1.149-1.139c-.842-.83-1.653-1.648-2.498-2.51l-.04.001c.432.888.831 1.733 1.221 2.592l.528 1.178 1.939-.122m.775.763c-.94.062-1.411.091-2.354.151l1.076 2.37c-.336.023-.505.035-.841.056L7.8 7.488l.922-.056 7.723 7.453-.866.057-2.314-2.286M165.007 97.385l1.298 1.223c.947.895 1.867 1.782 2.83 2.722a.176.176 0 0 1 .035-.005 166.865 166.865 0 0 1-1.688-2.89l-.746-1.304-1.73.254m-.245-3.721.771-.11c1.88 3.4 2.828 5.115 4.738 8.574l-.824.124c-3.471-3.226-5.2-4.83-8.635-8.022l.75-.109 2.579 2.443 2.1-.306-1.479-2.594M163.02 89.016c.042.058.58.84.32 1.31-.186.336-.677 1.005-.775 1.24-.1.238-.543 1.071-.334 1.376-.274-.295-1.835-.847-2.257-1.01-.423-.162-1.79-.573-2.427-.795-.895-.309-1.605-1.075-1.656-1.132-.095-.106-1.16-1.151-.048-1.825.582-.352 1.331-.24 1.914-.051-.36-.504-1.095-1.167-2.314-1.447.944.053 1.588-.075 1.678-.087.09-.012.791-.068 1.47-.34-.57.521-.199 1.233.243 1.725.194-.294.629-.57 1.599-.43 1.85.264 2.51 1.358 2.588 1.466"/>
        </g>
    </g>
</svg>
