<svg width="32" height="32" viewBox="0 0 32 32" xmlns="http://www.w3.org/2000/svg">
    <g fill="none" fill-rule="evenodd" opacity=".33">
        <path d="M0 0h32v32H0z"/>
        <path d="M21.724 5.05c1.437 0 2.734.654 3.645 1.7a7.765 7.765 0 0 0 3.05-.965 5.305 5.305 0 0 1-1.97 2.346 5.106 5.106 0 0 1-1.124.54 10.161 10.161 0 0 0 3.595-.658 10.85 10.85 0 0 1-2.097 2.17c-.086.448-.08.688-.08.93 0 3.976-1.519 8.282-4.415 11.4-2.46 2.648-5.914 4.437-10.278 4.437a13.78 13.78 0 0 1-7.078-1.965c2.802.004 5.123-.922 6.965-2.476.182-.154.358-.313.53-.478a4.667 4.667 0 0 1-.687.037 4.749 4.749 0 0 1-2.882-1.06 5.384 5.384 0 0 1-1.659-2.304 5.19 5.19 0 0 0 2.074-.172c.32-.094.63-.22.932-.378a4.691 4.691 0 0 1-.95-.106c-1.154-.25-2.163-.928-2.881-1.873a5.623 5.623 0 0 1-1.12-3.029 5.892 5.892 0 0 0 2.107.488c.28.01.56-.004.838-.039a5.094 5.094 0 0 1-.684-.414c-1.348-.97-2.232-2.627-2.232-4.503 0-.851.182-1.657.508-2.375 2.63 3.301 6.461 5.457 10.764 5.69.172-.7.128-1.114.128-1.539 0-1.495.561-2.848 1.47-3.828.904-.973 2.152-1.576 3.53-1.576z" stroke-opacity=".42" stroke="#FFF" stroke-width=".5" fill="#FFF"/>
    </g>
</svg>
