<svg width="32" height="32" viewBox="0 0 32 32" xmlns="http://www.w3.org/2000/svg">
    <g fill="none" fill-rule="evenodd">
        <path d="M0 0h32v32H0z"/>
        <path d="M6.236 9.843a1.026 1.026 0 0 0-.323-.855L3.523 6.04V5.6h7.422l5.737 12.877L21.725 5.6H28.8v.44l-2.044 2.005a.62.62 0 0 0-.227.588v14.735a.619.619 0 0 0 .227.587l1.996 2.005v.44h-10.04v-.44l2.069-2.055c.202-.207.202-.268.202-.586V11.41l-5.748 14.943h-.776L7.765 11.409v10.015c-.055.42.081.845.37 1.149l2.69 3.338v.441H3.2v-.441l2.69-3.338a1.35 1.35 0 0 0 .346-1.149V9.844z" fill="#FFF"/>
    </g>
</svg>
