<svg width="167" height="28" viewBox="0 0 167 28" xmlns="http://www.w3.org/2000/svg" xmlns:xlink="http://www.w3.org/1999/xlink">
    <defs>
        <path id="gp0oiur05a" d="M0 0h8.34v12.734H0z"/>
    </defs>
    <g fill="none" fill-rule="evenodd">
        <path fill="#15F8FF" d="M35.645 10.197h-4.829V6.262H44.98v3.935h-4.852v12.266h-4.482zM52.442 15.173c-.162-1.389-.993-2.268-2.195-2.268-1.155 0-1.94.879-2.171 2.268h4.366zM43.94 16.26v-.046c0-3.657 2.61-6.55 6.307-6.55 4.297 0 6.285 3.171 6.285 6.851 0 .278 0 .602-.023.902h-8.364c.346 1.366 1.34 2.06 2.703 2.06 1.063 0 1.872-.393 2.773-1.273l2.426 2.014c-1.202 1.528-2.935 2.546-5.407 2.546-3.928 0-6.7-2.639-6.7-6.504zM58.311 9.942h4.39v2.523c.716-1.713 1.872-2.824 3.95-2.73v4.628h-.369c-2.287 0-3.581 1.319-3.581 4.189v3.911h-4.39V9.943zM68.085 9.942h4.39v2.523c.715-1.713 1.87-2.824 3.95-2.73v4.628h-.37c-2.287 0-3.58 1.319-3.58 4.189v3.911h-4.39V9.943zM84.628 17.927v-.579a4.816 4.816 0 0 0-1.733-.324c-1.271 0-2.01.602-2.01 1.55v.047c0 .856.646 1.366 1.548 1.366 1.293 0 2.195-.81 2.195-2.06m-7.948.949v-.047c0-2.615 1.963-3.934 4.898-3.934 1.155 0 2.287.208 3.003.486v-.208c0-1.32-.808-2.06-2.495-2.06-1.317 0-2.334.278-3.466.694l-.9-3.078c1.409-.579 2.91-.972 5.06-.972 2.24 0 3.765.533 4.758 1.528.948.925 1.34 2.221 1.34 3.98v7.198h-4.32v-1.32c-.878.95-2.056 1.598-3.697 1.598-2.38 0-4.181-1.389-4.181-3.865M104.174 14.316c1.571 0 2.565-.856 2.565-2.129v-.046c0-1.389-.994-2.106-2.588-2.106h-2.125v4.281h2.148zm-6.63-8.053h6.954c4.066 0 6.7 2.105 6.7 5.67v.046c0 3.842-2.934 5.855-6.931 5.855h-2.241v4.629h-4.483v-16.2zM121.665 16.26v-.046c0-1.55-1.132-2.847-2.68-2.847-1.595 0-2.61 1.273-2.61 2.8v.047c0 1.528 1.108 2.824 2.656 2.824 1.594 0 2.634-1.273 2.634-2.778m-9.542 0v-.046c0-3.564 2.911-6.55 6.908-6.55 3.997 0 6.885 2.94 6.885 6.504v.046c0 3.564-2.91 6.55-6.931 6.55-3.974 0-6.862-2.94-6.862-6.504M127.65 5.568h4.39v8.563l3.396-4.189h4.967l-4.343 5 4.459 7.52h-4.852l-2.496-4.28-1.132 1.318v2.963h-4.39z"/>
        <path d="M148.79 15.173c-.162-1.389-.993-2.268-2.194-2.268-1.156 0-1.941.879-2.172 2.268h4.367zm-8.502 1.087v-.046c0-3.657 2.61-6.55 6.308-6.55 4.297 0 6.284 3.171 6.284 6.851 0 .278 0 .602-.023.902h-8.364c.347 1.366 1.34 2.06 2.703 2.06 1.063 0 1.872-.393 2.773-1.273l2.426 2.014c-1.201 1.528-2.934 2.546-5.407 2.546-3.928 0-6.7-2.639-6.7-6.504z" fill="#15F8FF"/>
        <g transform="translate(154.66 9.729)">
            <mask id="mbg6k9v84b" fill="#fff">
                <use xlink:href="#gp0oiur05a"/>
            </mask>
            <path d="M0 .213h4.39v2.523C5.106 1.024 6.26-.087 8.34.006v4.628h-.37c-2.287 0-3.58 1.32-3.58 4.19v3.91H0V.214z" fill="#15F8FF" mask="url(#mbg6k9v84b)"/>
        </g>
        <g fill="#15F8FF">
            <path d="M19.505 9.065c-5.163-4.789-6.89-7.601-7.464-8.852 0 0-.088-.26-.113-.206-.027-.054-.113.206-.113.206-.576 1.25-2.303 4.063-7.466 8.852-4.992 4.629-5.428 8.48-2.623 11.62 2.522 2.826 6.577 1.558 8.176.324v-7.24H6.837V10.13h10.18v3.638h-3.064v7.241c1.6 1.233 5.653 2.5 8.176-.324 2.805-3.14 2.37-6.992-2.624-11.621"/>
            <path d="M13.346 22.193H9.902L7.277 26h9.504l-2.828-3.807z"/>
        </g>
        <path d="M0 0h167v28H0z"/>
    </g>
</svg>
