<svg width="32" height="32" viewBox="0 0 32 32" xmlns="http://www.w3.org/2000/svg">
    <g fill="none" fill-rule="evenodd" opacity=".3">
        <path d="M0 0h32v32H0z"/>
        <path d="M4.068 14.555 20.27 7.907c1.6-.693 7.023-2.91 7.023-2.91s2.503-.969 2.295 1.386c-.07.97-.626 4.363-1.182 8.034L26.667 25.29s-.139 1.593-1.321 1.87c-1.182.277-3.13-.97-3.477-1.246-.278-.208-5.215-3.325-7.023-4.849-.487-.415-1.043-1.246.07-2.216 2.503-2.285 5.493-5.125 7.3-6.926.835-.83 1.67-2.77-1.807-.415l-9.805 6.58s-1.113.692-3.199.069a145.413 145.413 0 0 1-4.52-1.455s-1.668-1.039 1.183-2.147z" fill="#FFF"/>
    </g>
</svg>
