<svg width="40" height="40" viewBox="0 0 40 40" xmlns="http://www.w3.org/2000/svg">
    <g fill="none" fill-rule="evenodd">
        <path d="M0 0h40v40H0z"/>
        <path d="M22.547 31.315 26.103 36H14.151l3.301-4.685h5.095zM20.001 4.009c.031-.067.141.254.141.254.722 1.538 2.894 5 9.387 10.894 6.28 5.697 6.828 10.438 3.3 14.303-3.172 3.476-8.27 1.916-10.281.399v-8.913H26.4v-4.478H13.598v4.478h3.855v8.912c-2.012 1.518-7.11 3.079-10.282-.398-3.527-3.865-2.98-8.606 3.298-14.303 6.493-5.894 8.665-9.356 9.39-10.894 0 0 .107-.32.142-.254z" fill="#1BFFBC"/>
    </g>
</svg>
