<svg width="40" height="40" viewBox="0 0 40 40" xmlns="http://www.w3.org/2000/svg">
    <g fill="none" fill-rule="evenodd">
        <path d="M0 0h40v40H0z"/>
        <g fill="#15F8FF">
            <path d="M29.53 15.157c-6.494-5.894-8.666-9.356-9.388-10.894 0 0-.11-.32-.141-.254-.035-.067-.142.254-.142.254-.725 1.538-2.897 5-9.39 10.894-6.278 5.697-6.825 10.438-3.298 14.303 3.172 3.477 8.27 1.916 10.282.398v-8.912h-3.855v-4.478h12.803v4.478h-3.853v8.913c2.011 1.517 7.109 3.077 10.281-.4 3.528-3.864 2.98-8.605-3.3-14.302"/>
            <path d="M21.784 31.315h-4.332L14.151 36h11.952l-3.556-4.685z"/>
        </g>
    </g>
</svg>
